<svg width="400" height="135" viewBox="0 0 400 135" fill="none" xmlns="http://www.w3.org/2000/svg">
<g clip-path="url(#clip0_668_6480)">
<path d="M96.4591 0.05108C97.2365 0.012804 97.2365 0.012804 98.0296 -0.0262451C100.316 0.381725 101.36 1.43969 103.072 2.99477C104.291 4.81241 104.291 4.81241 105.405 6.88502C105.821 7.64938 106.238 8.41374 106.667 9.20127C106.988 9.80307 106.988 9.80307 107.316 10.417C108.207 12.0842 109.115 13.742 110.022 15.4005C110.475 16.2298 110.928 17.0596 111.379 17.8899C113.297 21.4147 115.261 24.91 117.278 28.3787C117.552 28.8602 117.827 29.3417 118.109 29.8377C118.746 30.9256 119.435 31.9819 120.137 33.0289C121.552 33.1801 121.552 33.1801 122.488 32.1517C123.056 31.5511 123.056 31.5511 123.635 30.9384C125.309 29.2127 127.008 27.5891 128.84 26.0323C132.506 22.8787 135.86 19.409 139.249 15.964C143.114 19.1706 146.657 22.6175 150.171 26.203C146.207 31.0624 141.732 35.4001 137.287 39.8122C136.483 40.6124 135.68 41.4127 134.876 42.2132C132.923 44.1593 130.967 46.1032 129.01 48.046C129.961 50.5657 131.099 52.874 132.413 55.2239C132.821 55.9566 133.229 56.6893 133.65 57.4443C134.09 58.2285 134.53 59.0127 134.983 59.8207C135.444 60.6465 135.905 61.4724 136.366 62.2984C137.551 64.42 138.738 66.5402 139.926 68.6601C140.987 70.5549 142.046 72.4511 143.105 74.3472C146.294 80.053 149.487 85.7561 152.717 91.4387C153.127 92.1613 153.538 92.8839 153.961 93.6284C154.744 95.0066 155.529 96.3838 156.316 97.76C156.839 98.6803 156.839 98.6803 157.373 99.6191C157.68 100.158 157.987 100.696 158.304 101.251C159.044 102.653 159.044 102.653 159.727 104.701C157.84 105.846 155.947 106.981 154.053 108.114C153.517 108.44 152.98 108.765 152.428 109.101C151.911 109.409 151.394 109.717 150.861 110.034C150.386 110.32 149.91 110.606 149.421 110.901C148.123 111.527 148.123 111.527 146.075 111.527C145.832 111.092 145.589 110.658 145.339 110.21C140.92 102.307 136.496 94.4082 132.039 86.5272C131.682 85.895 131.325 85.2629 130.957 84.6116C129.032 81.208 127.102 77.8079 125.165 74.4111C124.759 73.6972 124.353 72.9833 123.935 72.2477C123.157 70.8795 122.377 69.5123 121.595 68.1461C121.07 67.2217 121.07 67.2217 120.534 66.2787C120.072 65.4688 120.072 65.4688 119.6 64.6425C118.746 63.0139 118.059 61.3681 117.406 59.6501C113.587 62.9008 109.996 66.3092 106.485 69.889C105.576 70.815 104.666 71.7394 103.754 72.662C103.36 73.0641 102.966 73.4662 102.56 73.8805C101.231 75.1517 99.8736 76.353 98.4817 77.5536C95.4694 80.174 92.6407 82.9518 89.8224 85.7779C89.2961 86.3036 88.7697 86.8294 88.2274 87.371C87.1223 88.4756 86.0182 89.581 84.9148 90.6872C83.2385 92.3672 81.5585 94.0435 79.8782 95.7195C78.7985 96.7996 77.7191 97.88 76.6398 98.9605C75.8963 99.702 75.8963 99.702 75.1377 100.459C72.4142 103.194 69.804 105.99 67.292 108.922C57.1544 120.558 43.9568 132.707 27.9864 134.735C20.4081 135.256 13.8878 135.251 7.72186 130.341C3.07512 125.947 0.405701 120.145 -0.16263 113.81C-0.589341 97.4598 10.625 85.811 21.1604 74.6671C22.3533 73.4604 23.5571 72.267 24.7697 71.0802C25.9322 69.8954 27.0067 68.6676 28.0824 67.4039C31.3465 63.6511 34.9048 60.2073 38.4493 56.7224C40.819 54.3768 43.1392 52.0309 45.3072 49.4965C48.7347 45.5083 52.5428 41.8809 56.2847 38.1917C59.7939 34.7274 63.2286 31.2453 66.4356 27.4962C68.9497 24.6472 71.7182 22.0363 74.4294 19.377C77.1133 16.7242 79.6494 14.0015 82.1123 11.1429C83.9655 9.03821 85.9374 7.0605 87.9266 5.08521C88.3169 4.69233 88.7071 4.29945 89.1092 3.89467C91.6275 1.38232 92.912 0.164347 96.4591 0.05108ZM93.1789 21.5954C92.7875 21.9896 92.3961 22.3838 91.9929 22.79C91.5569 23.2273 91.1209 23.6646 90.6717 24.1152C90.2163 24.5789 89.761 25.0426 89.2918 25.5204C88.6286 26.1843 88.6286 26.1843 87.952 26.8616C85.7566 29.0767 83.6341 31.3264 81.5993 33.6902C78.5511 37.2187 75.213 40.4426 71.8884 43.7078C69.613 45.9584 67.3952 48.2144 65.3157 50.6483C61.7537 54.7884 57.7897 58.5537 53.9046 62.3868C50.2806 65.9665 46.719 69.5525 43.4074 73.4286C41.5567 75.5381 39.5469 77.483 37.5427 79.4453C34.6183 82.3393 31.752 85.2351 29.1009 88.3857C28.2707 89.353 27.4083 90.2929 26.5305 91.2174C21.6696 96.3666 15.2173 103.674 14.9611 111.103C15.3417 114.187 15.7784 116.515 17.7475 119.036C21.4726 120.898 26.1914 119.811 29.9915 118.652C36.6107 116.228 41.8057 112.307 46.9017 107.509C48.4642 106.066 48.4642 106.066 50.2293 104.675C51.7164 103.467 52.8766 102.287 54.0956 100.819C55.8902 98.7162 57.7571 96.7433 59.727 94.8036C61.5586 92.9966 63.3124 91.1784 64.9744 89.2149C67.3019 86.5067 69.7926 83.9781 72.3123 81.4504C72.8992 80.8588 72.8992 80.8588 73.498 80.2554C75.4474 78.3126 77.4249 76.4488 79.5249 74.6698C84.2105 70.6178 88.4776 66.0973 92.8328 61.6978C94.6368 59.8755 96.4423 58.0548 98.2509 56.2371C98.6782 55.8075 99.1056 55.378 99.5459 54.9354C102.146 52.338 104.794 49.8395 107.631 47.4994C108.63 46.6912 108.63 46.6912 109.215 45.3156C108.544 43.6983 108.544 43.6983 107.509 41.8866C107.13 41.1928 106.752 40.499 106.362 39.7842C105.747 38.6788 105.747 38.6788 105.119 37.5511C104.711 36.8089 104.302 36.0667 103.881 35.302C102.708 33.1756 101.526 31.054 100.341 28.9333C100.054 28.414 99.767 27.8946 99.4711 27.3595C97.6407 23.9739 97.6407 23.9739 95.5632 20.7422C94.1509 20.5961 94.1509 20.5961 93.1789 21.5954Z" fill="#1B156A"/>
<path d="M264.164 6.40776C265.065 7.08353 265.966 7.7593 266.894 8.45554C265.768 12.0596 264.642 15.6637 263.481 19.377C260.989 18.8786 258.627 18.3025 256.186 17.6279C250.435 16.1936 245.552 15.738 240.273 18.6945C238.126 20.2765 237.623 21.1365 236.903 23.7286C236.851 26.7425 237.101 27.8718 238.908 30.2985C242.792 33.3802 247.449 35.1742 251.962 37.1245C256.2 38.9607 260.114 40.7036 263.481 43.9504C263.862 44.305 264.243 44.6596 264.636 45.025C268.508 49.0278 269.682 53.801 269.923 59.2661C269.717 65.3457 267.639 70.475 263.423 74.8618C256.118 81.406 247.063 82.6398 237.545 82.2747C231.884 81.8649 226.372 80.2691 221.16 78.0801C221.44 73.4643 222.232 69.4305 223.891 65.1108C224.792 65.4685 224.792 65.4685 225.712 65.8334C226.505 66.144 227.298 66.4546 228.114 66.7747C228.898 67.0835 229.682 67.3923 230.49 67.7106C236.262 69.7743 244.614 70.6587 250.384 68.1398C252.956 66.5178 253.869 64.6516 254.607 61.6979C254.789 58.6135 254.494 56.9042 252.45 54.5093C250.417 52.7412 248.549 51.6726 246.118 50.5204C245.704 50.3197 245.291 50.119 244.865 49.9123C243.144 49.0771 241.415 48.259 239.679 47.4537C232.753 44.2371 226.103 40.9267 222.963 33.5755C220.887 27.7411 221.689 22.2988 223.891 16.6467C227.157 10.4772 232.401 7.10092 238.908 5.04258C246.354 2.90812 257.067 3.44979 264.164 6.40776Z" fill="black"/>
<path d="M319.939 29.7599C325.35 33.9889 328.238 40.0759 329.693 46.6808C330.477 56.607 329.618 65.1091 323.549 73.302C319.335 78.0523 313.469 81.2539 307.167 82.1757C298.276 82.7041 291.012 81.853 283.959 76.0323C278.284 70.7707 275.413 64.8106 274.923 57.0903C274.671 47.446 276.366 39.2588 282.948 31.8637C292.778 22.4167 308.981 22.6977 319.939 29.7599ZM293.729 39.6842C289.785 45.227 288.789 51.0935 289.606 57.7596C290.478 62.5343 292.428 66.236 296.032 69.505C299.219 71.6583 302.019 71.6732 305.802 71.2542C310.604 68.8532 312.83 65.2547 314.676 60.3327C316.382 54.5926 315.632 48.0327 313.311 42.5852C311.315 39.6204 309.187 37.0875 305.802 35.7593C300.825 35.0625 297.293 36.0368 293.729 39.6842Z" fill="black"/>
<path d="M360.026 0.136386C360.912 0.126707 361.798 0.117028 362.711 0.107056C365.02 0.253739 366.54 0.625012 368.601 1.62956C368.677 5.35495 368.544 8.87536 367.918 12.5511C367.309 12.5352 366.7 12.5194 366.073 12.5031C365.274 12.4907 364.475 12.4784 363.652 12.4657C362.86 12.4499 362.068 12.4341 361.252 12.4177C359.137 12.5454 358.044 12.7416 356.314 13.9163C353.79 17.6056 353.526 21.8741 352.901 26.2029C356.73 26.2029 360.56 26.2029 364.505 26.2029C364.505 29.807 364.505 33.4111 364.505 37.1244C360.676 37.1244 356.846 37.1244 352.901 37.1244C352.901 51.5408 352.901 65.9572 352.901 80.8104C348.396 80.8104 343.891 80.8104 339.249 80.8104C339.249 66.3941 339.249 51.9777 339.249 37.1244C336.771 37.1244 334.294 37.1244 331.741 37.1244C331.741 33.5203 331.741 29.9163 331.741 26.2029C334.218 26.2029 336.696 26.2029 339.249 26.2029C339.217 25.6495 339.186 25.096 339.153 24.5258C338.917 17.2855 340.241 11.2621 344.862 5.53581C349.268 1.26489 354.083 0.165834 360.026 0.136386Z" fill="black"/>
<path d="M387.031 10.5033C387.031 15.6842 387.031 20.8651 387.031 26.203C391.311 26.203 395.59 26.203 400 26.203C400 29.8071 400 33.4111 400 37.1245C395.72 37.1245 391.44 37.1245 387.031 37.1245C387.081 40.6094 387.138 44.0931 387.21 47.5775C387.232 48.7604 387.252 49.9434 387.267 51.1265C387.29 52.8365 387.326 54.546 387.364 56.2558C387.368 56.7765 387.373 57.2972 387.377 57.8337C387.476 61.5439 388.004 65.204 389.761 68.5238C393.121 70.1392 395.484 69.889 399.317 69.889C399.655 75.2951 399.655 75.2951 400 80.8105C393.497 82.8114 386.423 83.301 380.205 80.1279C375.951 76.8192 374.06 72.3886 373.379 67.1586C373.289 64.8348 373.299 62.5139 373.312 60.1887C373.313 59.5278 373.314 58.867 373.315 58.1861C373.319 56.0859 373.327 53.9857 373.336 51.8856C373.34 50.4573 373.343 49.029 373.346 47.6007C373.353 44.1086 373.365 40.6165 373.379 37.1245C370.901 37.1245 368.423 37.1245 365.87 37.1245C365.87 33.5204 365.87 29.9163 365.87 26.203C368.348 26.203 370.826 26.203 373.379 26.203C373.379 22.1483 373.379 18.0937 373.379 13.9163C385.159 10.5033 385.159 10.5033 387.031 10.5033Z" fill="black"/>
<path d="M217.747 24.8378C217.747 29.5681 217.747 34.2985 217.747 39.1722C216.621 39.1018 215.495 39.0315 214.334 38.9589C210.331 38.9641 207.711 39.8326 204.778 42.5852C202.594 45.9672 201.986 49.327 201.908 53.3009C201.894 53.9156 201.88 54.5303 201.866 55.1637C201.849 56.1451 201.849 56.1451 201.832 57.1463C201.818 57.8233 201.803 58.5002 201.789 59.1977C201.744 61.3536 201.704 63.5095 201.664 65.6654C201.634 67.1297 201.605 68.594 201.574 70.0583C201.501 73.6423 201.433 77.2263 201.365 80.8105C196.635 80.8105 191.904 80.8105 187.031 80.8105C187.031 62.79 187.031 44.7695 187.031 26.203C191.085 26.203 195.14 26.203 199.317 26.203C199.543 28.906 199.768 31.6091 200 34.3941C200.352 33.8028 200.704 33.2115 201.067 32.6023C205.429 26.0966 210.003 24.8378 217.747 24.8378Z" fill="black"/>
<path d="M161.775 26.203C166.505 26.203 171.236 26.203 176.109 26.203C176.109 44.2235 176.109 62.244 176.109 80.8105C171.379 80.8105 166.648 80.8105 161.775 80.8105C161.775 62.79 161.775 44.7696 161.775 26.203Z" fill="black"/>
<path d="M172.014 3.67742C174.676 4.81019 175.705 5.82231 176.792 8.45557C177.252 11.444 177.145 13.8762 175.811 16.604C173.348 18.586 171.068 19.2549 167.918 19.3771C165.302 18.89 163.571 17.8296 161.817 15.7935C160.893 13.4003 160.819 11.6871 161.092 9.13817C163.435 3.98348 166.643 2.96777 172.014 3.67742Z" fill="black"/>
</g>
<defs>
<clipPath id="clip0_668_6480">
<rect width="400" height="134.471" fill="white" transform="translate(0 0.264404)"/>
</clipPath>
</defs>
</svg>
