<svg width="60" height="61" viewBox="0 0 60 61" fill="none" xmlns="http://www.w3.org/2000/svg">
<path d="M30 35.3586C27.1875 35.3586 24.75 33.1086 24.75 30.1086C24.75 27.2961 27 24.8586 30 24.8586C32.8125 24.8586 35.25 27.1086 35.25 30.1086C35.25 32.9211 32.8125 35.3586 30 35.3586Z" fill="white"/>
<path fill-rule="evenodd" clip-rule="evenodd" d="M36.375 17.3586H23.625C22.125 17.5461 21.375 17.7336 20.8125 17.9211C20.0625 18.1086 19.5 18.4836 18.9375 19.0461C18.4924 19.4912 18.2821 19.9363 18.0279 20.4743C17.9609 20.6161 17.8907 20.7647 17.8125 20.9211C17.7835 21.0082 17.75 21.0997 17.7141 21.1977C17.5179 21.7336 17.25 22.4657 17.25 23.7336V36.4836C17.4375 37.9836 17.625 38.7336 17.8125 39.2961C18 40.0461 18.375 40.6086 18.9375 41.1711C19.3826 41.6162 19.8277 41.8265 20.3657 42.0807C20.5076 42.1478 20.656 42.2179 20.8125 42.2961C20.8995 42.3251 20.991 42.3586 21.0891 42.3945C21.625 42.5907 22.357 42.8586 23.625 42.8586H36.375C37.875 42.6711 38.625 42.4836 39.1875 42.2961C39.9375 42.1086 40.5 41.7336 41.0625 41.1711C41.5076 40.726 41.7179 40.2809 41.9721 39.7429C42.0391 39.6011 42.1093 39.4526 42.1875 39.2961C42.2165 39.2091 42.25 39.1176 42.2859 39.0195C42.482 38.4836 42.75 37.7516 42.75 36.4836V23.7336C42.5625 22.2336 42.375 21.4836 42.1875 20.9211C42 20.1711 41.625 19.6086 41.0625 19.0461C40.6174 18.601 40.1723 18.3907 39.6343 18.1365C39.4926 18.0696 39.3438 17.9993 39.1875 17.9211C39.1005 17.8921 39.009 17.8586 38.9109 17.8227C38.375 17.6266 37.643 17.3586 36.375 17.3586ZM30 22.0461C25.5 22.0461 21.9375 25.6086 21.9375 30.1086C21.9375 34.6086 25.5 38.1711 30 38.1711C34.5 38.1711 38.0625 34.6086 38.0625 30.1086C38.0625 25.6086 34.5 22.0461 30 22.0461ZM40.125 21.8586C40.125 22.8942 39.2855 23.7336 38.25 23.7336C37.2145 23.7336 36.375 22.8942 36.375 21.8586C36.375 20.8231 37.2145 19.9836 38.25 19.9836C39.2855 19.9836 40.125 20.8231 40.125 21.8586Z" fill="white"/>
<path fill-rule="evenodd" clip-rule="evenodd" d="M0 30.1086C0 13.5401 13.4315 0.108643 30 0.108643C46.5685 0.108643 60 13.5401 60 30.1086C60 46.6772 46.5685 60.1086 30 60.1086C13.4315 60.1086 0 46.6772 0 30.1086ZM23.625 14.5461H36.375C38.0625 14.7336 39.1875 14.9211 40.125 15.2961C41.25 15.8586 42 16.2336 42.9375 17.1711C43.875 18.1086 44.4375 19.0461 44.8125 19.9836C45.1875 20.9211 45.5625 22.0461 45.5625 23.7336V36.4836C45.375 38.1711 45.1875 39.2961 44.8125 40.2336C44.25 41.3586 43.875 42.1086 42.9375 43.0461C42 43.9836 41.0625 44.5461 40.125 44.9211C39.1875 45.2961 38.0625 45.6711 36.375 45.6711H23.625C21.9375 45.4836 20.8125 45.2961 19.875 44.9211C18.75 44.3586 18 43.9836 17.0625 43.0461C16.125 42.1086 15.5625 41.1711 15.1875 40.2336C14.8125 39.2961 14.4375 38.1711 14.4375 36.4836V23.7336C14.625 22.0461 14.8125 20.9211 15.1875 19.9836C15.75 18.8586 16.125 18.1086 17.0625 17.1711C18 16.2336 18.9375 15.6711 19.875 15.2961C20.8125 14.9211 21.9375 14.5461 23.625 14.5461Z" fill="white"/>
</svg>
