<svg width="350" height="57" viewBox="0 0 350 57" fill="none" xmlns="http://www.w3.org/2000/svg">
<path d="M5.16133 6.79911L3.31022 16.12C3.20859 16.5846 3.136 16.9693 3.09244 17.2742C3.06341 17.5646 3.04889 17.8477 3.04889 18.1236C3.04889 19.0673 3.31022 19.8077 3.83289 20.3449C4.37007 20.8676 5.15407 21.1289 6.18489 21.1289C6.88178 21.1289 7.4843 21.0418 7.99244 20.8676C8.51511 20.6788 8.96519 20.3812 9.34267 19.9747C9.73467 19.5536 10.0613 19.0164 10.3227 18.3631C10.5985 17.6953 10.8308 16.8822 11.0196 15.924L12.8489 6.79911H14.112L12.2609 16.0111C12.0286 17.1726 11.7382 18.1526 11.3898 18.9511C11.0559 19.7496 10.6421 20.3957 10.1484 20.8893C9.66933 21.383 9.08859 21.7387 8.40622 21.9564C7.73837 22.1597 6.95437 22.2613 6.05422 22.2613C4.71852 22.2613 3.67319 21.9201 2.91822 21.2378C2.17778 20.5409 1.80756 19.5391 1.80756 18.2324C1.80756 17.8695 1.82933 17.492 1.87289 17.1C1.93096 16.708 2.01081 16.2579 2.11244 15.7498L3.89822 6.79911H5.16133ZM15.1005 22L17.3218 10.8498H18.5414L18.0841 13.0929H18.1712C18.5777 12.2508 19.0641 11.6265 19.6303 11.22C20.211 10.799 20.9297 10.5884 21.7863 10.5884C22.7445 10.5884 23.4632 10.857 23.9423 11.3942C24.4214 11.9169 24.661 12.6573 24.661 13.6156C24.661 13.8188 24.6464 14.0511 24.6174 14.3124C24.6029 14.5593 24.5666 14.8061 24.5085 15.0529L23.3325 20.9329H25.0312L24.8134 22H23.2018C22.8679 22 22.6066 21.9274 22.4178 21.7822C22.2291 21.6225 22.1347 21.3902 22.1347 21.0853C22.1347 20.9837 22.142 20.8893 22.1565 20.8022C22.171 20.7006 22.1928 20.5917 22.2218 20.4756L23.3107 15.0529C23.3543 14.8206 23.3833 14.5956 23.3978 14.3778C23.4269 14.1455 23.4414 13.9567 23.4414 13.8116C23.4414 12.3887 22.7663 11.6773 21.4161 11.6773C20.9805 11.6773 20.5595 11.7644 20.153 11.9387C19.761 12.0984 19.3835 12.367 19.0205 12.7444C18.7011 13.0784 18.4107 13.4921 18.1494 13.9858C17.8881 14.4794 17.6993 14.9948 17.5832 15.532L16.2983 22H15.1005ZM28.5944 22C28.2169 22 27.9338 21.9129 27.7451 21.7387C27.5708 21.5499 27.4837 21.3031 27.4837 20.9982C27.4837 20.9256 27.4837 20.8676 27.4837 20.824C27.4837 20.7659 27.4982 20.6788 27.5273 20.5627L30.4673 5.88445H31.6651L28.6597 20.9329H30.4237L30.2059 22H28.5944ZM47.14 22.2613C46.5157 22.2613 45.964 22.1524 45.4849 21.9347C45.0058 21.7169 44.5993 21.412 44.2654 21.02C43.946 20.628 43.6992 20.1561 43.5249 19.6044C43.3652 19.0527 43.2854 18.443 43.2854 17.7751C43.2854 16.7879 43.4088 15.8587 43.6556 14.9876C43.9024 14.1164 44.2509 13.3542 44.7009 12.7009C45.1655 12.0476 45.7317 11.5321 46.3996 11.1547C47.0674 10.7772 47.8297 10.5884 48.6863 10.5884C49.63 10.5884 50.4067 10.828 51.0165 11.3071C51.6263 11.7862 52.0255 12.4105 52.2143 13.18L51.2125 13.5938C50.8495 12.3016 49.9929 11.6556 48.6427 11.6556C47.6845 11.6556 46.8787 11.9895 46.2254 12.6573C45.572 13.3107 45.1365 14.2036 44.9187 15.336L44.6138 16.8604C44.5848 17.0637 44.5557 17.2597 44.5267 17.4484C44.5122 17.6227 44.5049 17.8041 44.5049 17.9929C44.5049 18.9076 44.73 19.6698 45.18 20.2796C45.6301 20.8893 46.3197 21.1942 47.2489 21.1942C47.9168 21.1942 48.512 21.0127 49.0347 20.6498C49.5719 20.2723 50.0728 19.677 50.5374 18.864L51.4956 19.3213C51.002 20.236 50.3922 20.9547 49.6663 21.4773C48.9403 22 48.0983 22.2613 47.14 22.2613ZM56.8175 5.88445H58.0153L55.9029 16.4684H55.99L58.1678 14.5084L62.3273 10.8498H63.8082L58.6904 15.4231L61.282 20.9329H62.654L62.4362 22H61.4344C61.0569 22 60.7666 21.9347 60.5633 21.804C60.3746 21.6733 60.2076 21.441 60.0624 21.1071L57.7322 16.12L55.598 17.9929L54.7922 22H53.5944L56.8175 5.88445ZM77.5338 10.7627H79.2543L74.2236 24.6133C74.0929 24.9473 73.9623 25.2231 73.8316 25.4409C73.7009 25.6732 73.5412 25.8547 73.3525 25.9853C73.1637 26.116 72.9242 26.2104 72.6338 26.2684C72.358 26.3265 72.0168 26.3556 71.6103 26.3556H70.7174V24.8311H72.4814L73.3307 22.4356L69.1276 10.7627H70.8698L73.5703 18.4067L74.0929 20.236H74.2018L74.8116 18.4067L77.5338 10.7627ZM85.6164 22.2613C84.8615 22.2613 84.1718 22.1234 83.5476 21.8476C82.9233 21.5717 82.3861 21.1797 81.936 20.6716C81.5004 20.1489 81.1593 19.5319 80.9124 18.8204C80.6656 18.0945 80.5422 17.2815 80.5422 16.3813C80.5422 15.4957 80.6656 14.6899 80.9124 13.964C81.1593 13.2381 81.5004 12.621 81.936 12.1129C82.3861 11.5902 82.9233 11.191 83.5476 10.9151C84.1718 10.6393 84.8615 10.5013 85.6164 10.5013C86.3714 10.5013 87.0538 10.6393 87.6636 10.9151C88.2878 11.191 88.825 11.5902 89.2751 12.1129C89.7252 12.621 90.0736 13.2381 90.3204 13.964C90.5673 14.6899 90.6907 15.4957 90.6907 16.3813C90.6907 17.2815 90.5673 18.0945 90.3204 18.8204C90.0736 19.5319 89.7252 20.1489 89.2751 20.6716C88.825 21.1797 88.2878 21.5717 87.6636 21.8476C87.0538 22.1234 86.3714 22.2613 85.6164 22.2613ZM85.6164 20.7151C86.5601 20.7151 87.3296 20.4247 87.9249 19.844C88.5201 19.2633 88.8178 18.3776 88.8178 17.1871V15.5756C88.8178 14.385 88.5201 13.4994 87.9249 12.9187C87.3296 12.3379 86.5601 12.0476 85.6164 12.0476C84.6727 12.0476 83.9033 12.3379 83.308 12.9187C82.7127 13.4994 82.4151 14.385 82.4151 15.5756V17.1871C82.4151 18.3776 82.7127 19.2633 83.308 19.844C83.9033 20.4247 84.6727 20.7151 85.6164 20.7151ZM100.481 20.1707H100.394C100.278 20.432 100.133 20.6933 99.9586 20.9547C99.7989 21.2015 99.5957 21.4265 99.3489 21.6298C99.102 21.8185 98.8044 21.971 98.456 22.0871C98.1075 22.2033 97.701 22.2613 97.2364 22.2613C96.0749 22.2613 95.153 21.8911 94.4706 21.1507C93.7883 20.3957 93.4471 19.3359 93.4471 17.9711V10.7627H95.1893V17.6662C95.1893 19.6843 96.0459 20.6933 97.7591 20.6933C98.1075 20.6933 98.4414 20.6498 98.7609 20.5627C99.0948 20.4756 99.3852 20.3449 99.632 20.1707C99.8933 19.9964 100.097 19.7787 100.242 19.5173C100.401 19.2415 100.481 18.9148 100.481 18.5373V10.7627H102.224V22H100.481V20.1707ZM105.934 22V10.7627H107.676V12.8316H107.785C107.988 12.2944 108.351 11.8153 108.874 11.3942C109.396 10.9732 110.115 10.7627 111.03 10.7627H111.705V12.5049H110.681C109.737 12.5049 108.997 12.6864 108.46 13.0493C107.937 13.3978 107.676 13.8406 107.676 14.3778V22H105.934ZM126.263 20.1707H126.176C125.494 21.5644 124.398 22.2613 122.888 22.2613C122.191 22.2613 121.559 22.1234 120.993 21.8476C120.427 21.5717 119.941 21.1797 119.534 20.6716C119.142 20.1634 118.837 19.5464 118.619 18.8204C118.416 18.0945 118.315 17.2815 118.315 16.3813C118.315 15.4812 118.416 14.6681 118.619 13.9422C118.837 13.2163 119.142 12.5993 119.534 12.0911C119.941 11.583 120.427 11.191 120.993 10.9151C121.559 10.6393 122.191 10.5013 122.888 10.5013C123.672 10.5013 124.34 10.6756 124.891 11.024C125.458 11.3579 125.886 11.8806 126.176 12.592H126.263V5.88445H128.006V22H126.263V20.1707ZM123.367 20.6933C123.759 20.6933 124.129 20.6425 124.478 20.5409C124.841 20.4393 125.153 20.2941 125.414 20.1053C125.675 19.9021 125.879 19.6625 126.024 19.3867C126.184 19.0963 126.263 18.7696 126.263 18.4067V14.2253C126.263 13.9204 126.184 13.6373 126.024 13.376C125.879 13.1001 125.675 12.8679 125.414 12.6791C125.153 12.4904 124.841 12.3452 124.478 12.2436C124.129 12.1274 123.759 12.0693 123.367 12.0693C122.38 12.0693 121.603 12.3815 121.037 13.0058C120.471 13.6156 120.187 14.4213 120.187 15.4231V17.3396C120.187 18.3413 120.471 19.1544 121.037 19.7787C121.603 20.3884 122.38 20.6933 123.367 20.6933ZM135.935 22.2613C135.165 22.2613 134.468 22.1234 133.844 21.8476C133.234 21.5717 132.704 21.1797 132.254 20.6716C131.819 20.1489 131.477 19.5319 131.231 18.8204C130.998 18.0945 130.882 17.2815 130.882 16.3813C130.882 15.4957 130.998 14.6899 131.231 13.964C131.477 13.2381 131.819 12.621 132.254 12.1129C132.704 11.5902 133.234 11.191 133.844 10.9151C134.468 10.6393 135.165 10.5013 135.935 10.5013C136.689 10.5013 137.365 10.6393 137.96 10.9151C138.555 11.191 139.063 11.5757 139.484 12.0693C139.905 12.5484 140.225 13.1219 140.443 13.7898C140.675 14.4576 140.791 15.1908 140.791 15.9893V16.8169H132.711V17.3396C132.711 17.8187 132.784 18.2687 132.929 18.6898C133.089 19.0963 133.307 19.452 133.583 19.7569C133.873 20.0618 134.221 20.3013 134.628 20.4756C135.049 20.6498 135.521 20.7369 136.043 20.7369C136.755 20.7369 137.372 20.5699 137.895 20.236C138.432 19.9021 138.845 19.423 139.136 18.7987L140.377 19.6916C140.014 20.461 139.448 21.0853 138.679 21.5644C137.909 22.029 136.994 22.2613 135.935 22.2613ZM135.935 11.9604C135.455 11.9604 135.02 12.0476 134.628 12.2218C134.236 12.3815 133.895 12.6138 133.604 12.9187C133.328 13.2236 133.111 13.5865 132.951 14.0076C132.791 14.4141 132.711 14.8641 132.711 15.3578V15.5102H138.918V15.2707C138.918 14.2689 138.642 13.4704 138.091 12.8751C137.553 12.2653 136.835 11.9604 135.935 11.9604ZM147.037 22.2613C145.992 22.2613 145.114 22.0653 144.402 21.6733C143.705 21.2668 143.103 20.7296 142.595 20.0618L143.836 19.06C144.272 19.6117 144.758 20.04 145.295 20.3449C145.832 20.6353 146.457 20.7804 147.168 20.7804C147.909 20.7804 148.482 20.6207 148.889 20.3013C149.31 19.9819 149.52 19.5319 149.52 18.9511C149.52 18.5156 149.375 18.1453 149.085 17.8404C148.809 17.521 148.301 17.3033 147.56 17.1871L146.667 17.0564C146.145 16.9839 145.665 16.875 145.23 16.7298C144.794 16.5701 144.41 16.3668 144.076 16.12C143.756 15.8587 143.502 15.5393 143.313 15.1618C143.139 14.7843 143.052 14.3342 143.052 13.8116C143.052 13.2599 143.154 12.7807 143.357 12.3742C143.56 11.9532 143.836 11.6047 144.185 11.3289C144.548 11.053 144.976 10.8498 145.469 10.7191C145.963 10.5739 146.493 10.5013 147.059 10.5013C147.974 10.5013 148.736 10.661 149.346 10.9804C149.97 11.2999 150.515 11.7427 150.979 12.3089L149.825 13.3542C149.578 13.0058 149.215 12.6936 148.736 12.4178C148.257 12.1274 147.654 11.9822 146.929 11.9822C146.203 11.9822 145.651 12.1419 145.273 12.4613C144.91 12.7662 144.729 13.1873 144.729 13.7244C144.729 14.2761 144.91 14.6754 145.273 14.9222C145.651 15.169 146.188 15.3505 146.885 15.4667L147.756 15.5973C149.005 15.7861 149.89 16.149 150.413 16.6862C150.936 17.2089 151.197 17.8985 151.197 18.7551C151.197 19.844 150.827 20.7006 150.086 21.3249C149.346 21.9492 148.33 22.2613 147.037 22.2613ZM155.145 8.12756C154.768 8.12756 154.492 8.04044 154.318 7.86622C154.158 7.67748 154.078 7.43793 154.078 7.14756V6.86444C154.078 6.57407 154.158 6.34178 154.318 6.16756C154.492 5.97882 154.768 5.88445 155.145 5.88445C155.523 5.88445 155.791 5.97882 155.951 6.16756C156.125 6.34178 156.213 6.57407 156.213 6.86444V7.14756C156.213 7.43793 156.125 7.67748 155.951 7.86622C155.791 8.04044 155.523 8.12756 155.145 8.12756ZM154.274 10.7627H156.017V22H154.274V10.7627ZM169.192 23.2413C169.192 24.4028 168.735 25.2521 167.82 25.7893C166.92 26.341 165.562 26.6169 163.748 26.6169C161.991 26.6169 160.728 26.3773 159.958 25.8982C159.189 25.4191 158.804 24.7367 158.804 23.8511C158.804 23.2413 158.964 22.7622 159.283 22.4138C159.603 22.0799 160.038 21.833 160.59 21.6733V21.4338C159.922 21.1144 159.588 20.5917 159.588 19.8658C159.588 19.2996 159.77 18.8713 160.133 18.5809C160.495 18.276 160.96 18.051 161.526 17.9058V17.8187C160.858 17.4993 160.336 17.0419 159.958 16.4467C159.595 15.8514 159.414 15.1618 159.414 14.3778C159.414 13.8116 159.515 13.2889 159.719 12.8098C159.922 12.3307 160.205 11.9241 160.568 11.5902C160.946 11.2418 161.388 10.9732 161.897 10.7844C162.419 10.5957 163 10.5013 163.639 10.5013C164.437 10.5013 165.149 10.6465 165.773 10.9369V10.7409C165.773 10.3053 165.875 9.94963 166.078 9.67378C166.281 9.38341 166.615 9.23822 167.08 9.23822H168.757V10.7627H166.622V11.4813C167.029 11.8298 167.341 12.2508 167.559 12.7444C167.791 13.2236 167.907 13.768 167.907 14.3778C167.907 14.944 167.806 15.4667 167.602 15.9458C167.399 16.4249 167.109 16.8387 166.731 17.1871C166.368 17.521 165.925 17.7824 165.403 17.9711C164.88 18.1599 164.299 18.2542 163.661 18.2542C163.298 18.2542 162.935 18.2179 162.572 18.1453C162.194 18.247 161.853 18.3994 161.548 18.6027C161.243 18.7914 161.091 19.06 161.091 19.4084C161.091 19.7424 161.25 19.9674 161.57 20.0836C161.889 20.1997 162.303 20.2578 162.811 20.2578H165.207C166.601 20.2578 167.61 20.5264 168.234 21.0636C168.873 21.5862 169.192 22.3121 169.192 23.2413ZM167.559 23.372C167.559 22.9219 167.385 22.559 167.036 22.2831C166.702 22.0218 166.1 21.8911 165.229 21.8911H161.483C160.786 22.2105 160.437 22.7187 160.437 23.4156C160.437 23.9092 160.619 24.3302 160.982 24.6787C161.359 25.0271 161.991 25.2013 162.877 25.2013H164.488C165.461 25.2013 166.216 25.0489 166.753 24.744C167.29 24.4391 167.559 23.9818 167.559 23.372ZM163.661 16.8604C164.401 16.8604 164.989 16.6862 165.425 16.3378C165.86 15.9748 166.078 15.4231 166.078 14.6827V14.0729C166.078 13.3324 165.86 12.788 165.425 12.4396C164.989 12.0766 164.401 11.8951 163.661 11.8951C162.92 11.8951 162.332 12.0766 161.897 12.4396C161.461 12.788 161.243 13.3324 161.243 14.0729V14.6827C161.243 15.4231 161.461 15.9748 161.897 16.3378C162.332 16.6862 162.92 16.8604 163.661 16.8604ZM171.224 22V10.7627H172.967V12.592H173.054C173.33 11.9532 173.714 11.445 174.208 11.0676C174.716 10.6901 175.391 10.5013 176.233 10.5013C177.395 10.5013 178.309 10.8788 178.977 11.6338C179.66 12.3742 180.001 13.4268 180.001 14.7916V22H178.259V15.0964C178.259 13.0784 177.409 12.0693 175.711 12.0693C175.362 12.0693 175.021 12.1129 174.687 12.2C174.368 12.2871 174.077 12.4178 173.816 12.592C173.555 12.7662 173.344 12.9913 173.184 13.2671C173.039 13.5284 172.967 13.8406 172.967 14.2036V22H171.224ZM1.85111 38.7627H3.59333V40.592H3.68044C3.97081 39.8806 4.39185 39.3579 4.94356 39.024C5.50978 38.6756 6.18489 38.5013 6.96889 38.5013C7.66578 38.5013 8.29733 38.6393 8.86356 38.9151C9.42978 39.191 9.90889 39.583 10.3009 40.0911C10.7074 40.5993 11.0123 41.2163 11.2156 41.9422C11.4333 42.6681 11.5422 43.4812 11.5422 44.3813C11.5422 45.2815 11.4333 46.0945 11.2156 46.8204C11.0123 47.5464 10.7074 48.1634 10.3009 48.6716C9.90889 49.1797 9.42978 49.5717 8.86356 49.8476C8.29733 50.1234 7.66578 50.2613 6.96889 50.2613C5.44444 50.2613 4.3483 49.5644 3.68044 48.1707H3.59333V54.3556H1.85111V38.7627ZM6.48978 48.6933C7.47704 48.6933 8.25378 48.3884 8.82 47.7787C9.38622 47.1544 9.66933 46.3413 9.66933 45.3396V43.4231C9.66933 42.4213 9.38622 41.6156 8.82 41.0058C8.25378 40.3815 7.47704 40.0693 6.48978 40.0693C6.09778 40.0693 5.7203 40.1274 5.35733 40.2436C5.00889 40.3452 4.704 40.4904 4.44267 40.6791C4.18133 40.8679 3.97081 41.1001 3.81111 41.376C3.66593 41.6373 3.59333 41.9204 3.59333 42.2253V46.4067C3.59333 46.7696 3.66593 47.0963 3.81111 47.3867C3.97081 47.6625 4.18133 47.9021 4.44267 48.1053C4.704 48.2941 5.00889 48.4393 5.35733 48.5409C5.7203 48.6425 6.09778 48.6933 6.48978 48.6933ZM18.7306 50.2613C17.9756 50.2613 17.286 50.1234 16.6617 49.8476C16.0374 49.5717 15.5002 49.1797 15.0501 48.6716C14.6146 48.1489 14.2734 47.5319 14.0266 46.8204C13.7798 46.0945 13.6564 45.2815 13.6564 44.3813C13.6564 43.4957 13.7798 42.6899 14.0266 41.964C14.2734 41.2381 14.6146 40.621 15.0501 40.1129C15.5002 39.5902 16.0374 39.191 16.6617 38.9151C17.286 38.6393 17.9756 38.5013 18.7306 38.5013C19.4856 38.5013 20.1679 38.6393 20.7777 38.9151C21.402 39.191 21.9392 39.5902 22.3893 40.1129C22.8393 40.621 23.1878 41.2381 23.4346 41.964C23.6814 42.6899 23.8048 43.4957 23.8048 44.3813C23.8048 45.2815 23.6814 46.0945 23.4346 46.8204C23.1878 47.5319 22.8393 48.1489 22.3893 48.6716C21.9392 49.1797 21.402 49.5717 20.7777 49.8476C20.1679 50.1234 19.4856 50.2613 18.7306 50.2613ZM18.7306 48.7151C19.6743 48.7151 20.4438 48.4247 21.039 47.844C21.6343 47.2633 21.9319 46.3776 21.9319 45.1871V43.5756C21.9319 42.385 21.6343 41.4994 21.039 40.9187C20.4438 40.3379 19.6743 40.0476 18.7306 40.0476C17.7869 40.0476 17.0174 40.3379 16.4221 40.9187C15.8269 41.4994 15.5293 42.385 15.5293 43.5756V45.1871C15.5293 46.3776 15.8269 47.2633 16.4221 47.844C17.0174 48.4247 17.7869 48.7151 18.7306 48.7151ZM29.1528 50C28.543 50 28.0784 49.833 27.759 49.4991C27.4541 49.1507 27.3017 48.7006 27.3017 48.1489V40.2871H25.4506V38.7627H26.4959C26.8734 38.7627 27.1275 38.6901 27.2581 38.5449C27.4033 38.3852 27.4759 38.1166 27.4759 37.7391V35.6484H29.0439V38.7627H31.5048V40.2871H29.0439V48.4756H31.3306V50H29.1528ZM38.4449 50.2613C37.6754 50.2613 36.9786 50.1234 36.3543 49.8476C35.7445 49.5717 35.2146 49.1797 34.7645 48.6716C34.3289 48.1489 33.9877 47.5319 33.7409 46.8204C33.5086 46.0945 33.3925 45.2815 33.3925 44.3813C33.3925 43.4957 33.5086 42.6899 33.7409 41.964C33.9877 41.2381 34.3289 40.621 34.7645 40.1129C35.2146 39.5902 35.7445 39.191 36.3543 38.9151C36.9786 38.6393 37.6754 38.5013 38.4449 38.5013C39.1999 38.5013 39.875 38.6393 40.4703 38.9151C41.0655 39.191 41.5737 39.5757 41.9947 40.0693C42.4157 40.5484 42.7351 41.1219 42.9529 41.7898C43.1852 42.4576 43.3014 43.1908 43.3014 43.9893V44.8169H35.2218V45.3396C35.2218 45.8187 35.2944 46.2687 35.4396 46.6898C35.5993 47.0963 35.8171 47.452 36.0929 47.7569C36.3833 48.0618 36.7317 48.3013 37.1383 48.4756C37.5593 48.6498 38.0311 48.7369 38.5538 48.7369C39.2652 48.7369 39.8823 48.5699 40.4049 48.236C40.9421 47.9021 41.3559 47.423 41.6463 46.7987L42.8876 47.6916C42.5246 48.461 41.9584 49.0853 41.1889 49.5644C40.4194 50.029 39.5048 50.2613 38.4449 50.2613ZM38.4449 39.9604C37.9658 39.9604 37.5303 40.0476 37.1383 40.2218C36.7463 40.3815 36.4051 40.6138 36.1147 40.9187C35.8388 41.2236 35.6211 41.5865 35.4614 42.0076C35.3017 42.4141 35.2218 42.8641 35.2218 43.3578V43.5102H41.4285V43.2707C41.4285 42.2689 41.1526 41.4704 40.6009 40.8751C40.0637 40.2653 39.3451 39.9604 38.4449 39.9604ZM46.1723 50V38.7627H47.9145V40.592H48.0016C48.2775 39.9532 48.6622 39.445 49.1558 39.0676C49.664 38.6901 50.3391 38.5013 51.1812 38.5013C52.3427 38.5013 53.2573 38.8788 53.9252 39.6338C54.6075 40.3742 54.9487 41.4268 54.9487 42.7916V50H53.2065V43.0964C53.2065 41.0784 52.3572 40.0693 50.6585 40.0693C50.3101 40.0693 49.9689 40.1129 49.635 40.2C49.3155 40.2871 49.0252 40.4178 48.7638 40.592C48.5025 40.7662 48.292 40.9913 48.1323 41.2671C47.9871 41.5284 47.9145 41.8406 47.9145 42.2036V50H46.1723ZM61.0326 50C60.4228 50 59.9582 49.833 59.6388 49.4991C59.3339 49.1507 59.1814 48.7006 59.1814 48.1489V40.2871H57.3303V38.7627H58.3757C58.7532 38.7627 59.0072 38.6901 59.1379 38.5449C59.2831 38.3852 59.3557 38.1166 59.3557 37.7391V35.6484H60.9237V38.7627H63.3846V40.2871H60.9237V48.4756H63.2103V50H61.0326ZM67.056 36.1276C66.6785 36.1276 66.4027 36.0404 66.2284 35.8662C66.0687 35.6775 65.9889 35.4379 65.9889 35.1476V34.8644C65.9889 34.5741 66.0687 34.3418 66.2284 34.1676C66.4027 33.9788 66.6785 33.8844 67.056 33.8844C67.4335 33.8844 67.7021 33.9788 67.8618 34.1676C68.036 34.3418 68.1231 34.5741 68.1231 34.8644V35.1476C68.1231 35.4379 68.036 35.6775 67.8618 35.8662C67.7021 36.0404 67.4335 36.1276 67.056 36.1276ZM66.1849 38.7627H67.9271V50H66.1849V38.7627ZM79.796 50C79.1427 50 78.6708 49.8258 78.3804 49.4773C78.1046 49.1289 77.9304 48.6933 77.8578 48.1707H77.7489C77.5021 48.8676 77.0955 49.3902 76.5293 49.7387C75.9631 50.0871 75.288 50.2613 74.504 50.2613C73.3135 50.2613 72.3843 49.9564 71.7164 49.3467C71.0631 48.7369 70.7364 47.9093 70.7364 46.864C70.7364 45.8041 71.1212 44.9911 71.8907 44.4249C72.6747 43.8587 73.8869 43.5756 75.5275 43.5756H77.7489V42.4649C77.7489 41.6664 77.5311 41.0566 77.0955 40.6356C76.66 40.2145 75.9921 40.004 75.092 40.004C74.4096 40.004 73.8361 40.1564 73.3715 40.4613C72.9215 40.7662 72.544 41.1727 72.2391 41.6809L71.1938 40.7009C71.4987 40.0911 71.985 39.5757 72.6529 39.1547C73.3207 38.7191 74.1628 38.5013 75.1791 38.5013C76.5438 38.5013 77.6037 38.8353 78.3587 39.5031C79.1136 40.171 79.4911 41.1001 79.4911 42.2907V48.4756H80.776V50H79.796ZM74.7871 48.7804C75.2227 48.7804 75.6219 48.7296 75.9849 48.628C76.3478 48.5264 76.66 48.3812 76.9213 48.1924C77.1827 48.0037 77.3859 47.7859 77.5311 47.5391C77.6763 47.2923 77.7489 47.0237 77.7489 46.7333V44.8822H75.4404C74.4387 44.8822 73.7055 45.0274 73.2409 45.3178C72.7908 45.6081 72.5658 46.0292 72.5658 46.5809V47.0382C72.5658 47.5899 72.7618 48.0182 73.1538 48.3231C73.5603 48.628 74.1047 48.7804 74.7871 48.7804ZM85.1137 50C84.5039 50 84.0393 49.833 83.7199 49.4991C83.415 49.1507 83.2626 48.7151 83.2626 48.1924V33.8844H85.0048V48.4756H86.6599V50H85.1137ZM93.1669 38.7627H94.8655L96.0633 43.6191L97.2611 48.5409H97.3046L98.6766 43.6191L100.092 38.7627H101.638L103.098 43.6191L104.491 48.5409H104.535L105.689 43.6191L106.909 38.7627H108.542L105.558 50H103.402L101.834 44.5991L100.854 41.18H100.811L99.8526 44.5991L98.2846 50H96.1722L93.1669 38.7627ZM111.93 36.1276C111.553 36.1276 111.277 36.0404 111.103 35.8662C110.943 35.6775 110.863 35.4379 110.863 35.1476V34.8644C110.863 34.5741 110.943 34.3418 111.103 34.1676C111.277 33.9788 111.553 33.8844 111.93 33.8844C112.308 33.8844 112.576 33.9788 112.736 34.1676C112.91 34.3418 112.997 34.5741 112.997 34.8644V35.1476C112.997 35.4379 112.91 35.6775 112.736 35.8662C112.576 36.0404 112.308 36.1276 111.93 36.1276ZM111.059 38.7627H112.801V50H111.059V38.7627ZM118.986 50C118.376 50 117.912 49.833 117.592 49.4991C117.287 49.1507 117.135 48.7006 117.135 48.1489V40.2871H115.284V38.7627H116.329C116.707 38.7627 116.961 38.6901 117.091 38.5449C117.237 38.3852 117.309 38.1166 117.309 37.7391V35.6484H118.877V38.7627H121.338V40.2871H118.877V48.4756H121.164V50H118.986ZM124.138 33.8844H125.881V40.592H125.968C126.244 39.9532 126.628 39.445 127.122 39.0676C127.63 38.6901 128.305 38.5013 129.147 38.5013C130.309 38.5013 131.223 38.8788 131.891 39.6338C132.574 40.3742 132.915 41.4268 132.915 42.7916V50H131.173V43.0964C131.173 41.0784 130.323 40.0693 128.625 40.0693C128.276 40.0693 127.935 40.1129 127.601 40.2C127.282 40.2871 126.991 40.4178 126.73 40.592C126.469 40.7662 126.258 40.9913 126.098 41.2671C125.953 41.5284 125.881 41.8406 125.881 42.2036V50H124.138V33.8844ZM145.909 50.2613C145.154 50.2613 144.465 50.1234 143.841 49.8476C143.216 49.5717 142.679 49.1797 142.229 48.6716C141.793 48.1489 141.452 47.5319 141.205 46.8204C140.959 46.0945 140.835 45.2815 140.835 44.3813C140.835 43.4957 140.959 42.6899 141.205 41.964C141.452 41.2381 141.793 40.621 142.229 40.1129C142.679 39.5902 143.216 39.191 143.841 38.9151C144.465 38.6393 145.154 38.5013 145.909 38.5013C146.664 38.5013 147.347 38.6393 147.957 38.9151C148.581 39.191 149.118 39.5902 149.568 40.1129C150.018 40.621 150.367 41.2381 150.613 41.964C150.86 42.6899 150.984 43.4957 150.984 44.3813C150.984 45.2815 150.86 46.0945 150.613 46.8204C150.367 47.5319 150.018 48.1489 149.568 48.6716C149.118 49.1797 148.581 49.5717 147.957 49.8476C147.347 50.1234 146.664 50.2613 145.909 50.2613ZM145.909 48.7151C146.853 48.7151 147.623 48.4247 148.218 47.844C148.813 47.2633 149.111 46.3776 149.111 45.1871V43.5756C149.111 42.385 148.813 41.4994 148.218 40.9187C147.623 40.3379 146.853 40.0476 145.909 40.0476C144.966 40.0476 144.196 40.3379 143.601 40.9187C143.006 41.4994 142.708 42.385 142.708 43.5756V45.1871C142.708 46.3776 143.006 47.2633 143.601 47.844C144.196 48.4247 144.966 48.7151 145.909 48.7151ZM160.774 48.1707H160.687C160.571 48.432 160.426 48.6933 160.252 48.9547C160.092 49.2015 159.889 49.4265 159.642 49.6298C159.395 49.8185 159.097 49.971 158.749 50.0871C158.4 50.2033 157.994 50.2613 157.529 50.2613C156.368 50.2613 155.446 49.8911 154.764 49.1507C154.081 48.3957 153.74 47.3359 153.74 45.9711V38.7627H155.482V45.6662C155.482 47.6843 156.339 48.6933 158.052 48.6933C158.4 48.6933 158.734 48.6498 159.054 48.5627C159.388 48.4756 159.678 48.3449 159.925 48.1707C160.186 47.9964 160.39 47.7787 160.535 47.5173C160.694 47.2415 160.774 46.9148 160.774 46.5373V38.7627H162.516V50H160.774V48.1707ZM166.227 50V38.7627H167.969V40.8316H168.078C168.281 40.2944 168.644 39.8153 169.167 39.3942C169.689 38.9732 170.408 38.7627 171.323 38.7627H171.998V40.5049H170.974C170.03 40.5049 169.29 40.6864 168.753 41.0493C168.23 41.3978 167.969 41.8406 167.969 42.3778V50H166.227ZM182.745 50.2613C181.7 50.2613 180.822 50.0653 180.11 49.6733C179.413 49.2668 178.811 48.7296 178.303 48.0618L179.544 47.06C179.98 47.6117 180.466 48.04 181.003 48.3449C181.54 48.6353 182.165 48.7804 182.876 48.7804C183.616 48.7804 184.19 48.6207 184.596 48.3013C185.017 47.9819 185.228 47.5319 185.228 46.9511C185.228 46.5156 185.083 46.1453 184.792 45.8404C184.517 45.521 184.008 45.3033 183.268 45.1871L182.375 45.0564C181.852 44.9839 181.373 44.875 180.938 44.7298C180.502 44.5701 180.117 44.3668 179.784 44.12C179.464 43.8587 179.21 43.5393 179.021 43.1618C178.847 42.7843 178.76 42.3342 178.76 41.8116C178.76 41.2599 178.862 40.7807 179.065 40.3742C179.268 39.9532 179.544 39.6047 179.892 39.3289C180.255 39.053 180.684 38.8498 181.177 38.7191C181.671 38.5739 182.201 38.5013 182.767 38.5013C183.682 38.5013 184.444 38.661 185.054 38.9804C185.678 39.2999 186.222 39.7427 186.687 40.3089L185.533 41.3542C185.286 41.0058 184.923 40.6936 184.444 40.4178C183.965 40.1274 183.362 39.9822 182.636 39.9822C181.91 39.9822 181.359 40.1419 180.981 40.4613C180.618 40.7662 180.437 41.1873 180.437 41.7244C180.437 42.2761 180.618 42.6754 180.981 42.9222C181.359 43.169 181.896 43.3505 182.593 43.4667L183.464 43.5973C184.713 43.7861 185.598 44.149 186.121 44.6862C186.644 45.2089 186.905 45.8985 186.905 46.7551C186.905 47.844 186.535 48.7006 185.794 49.3249C185.054 49.9492 184.037 50.2613 182.745 50.2613ZM192.316 50C191.706 50 191.242 49.833 190.922 49.4991C190.617 49.1507 190.465 48.7006 190.465 48.1489V40.2871H188.614V38.7627H189.659C190.037 38.7627 190.291 38.6901 190.421 38.5449C190.566 38.3852 190.639 38.1166 190.639 37.7391V35.6484H192.207V38.7627H194.668V40.2871H192.207V48.4756H194.494V50H192.316ZM204.394 48.1707H204.307C204.19 48.432 204.045 48.6933 203.871 48.9547C203.711 49.2015 203.508 49.4265 203.261 49.6298C203.014 49.8185 202.717 49.971 202.368 50.0871C202.02 50.2033 201.613 50.2613 201.149 50.2613C199.987 50.2613 199.065 49.8911 198.383 49.1507C197.701 48.3957 197.359 47.3359 197.359 45.9711V38.7627H199.102V45.6662C199.102 47.6843 199.958 48.6933 201.671 48.6933C202.02 48.6933 202.354 48.6498 202.673 48.5627C203.007 48.4756 203.297 48.3449 203.544 48.1707C203.806 47.9964 204.009 47.7787 204.154 47.5173C204.314 47.2415 204.394 46.9148 204.394 46.5373V38.7627H206.136V50H204.394V48.1707ZM217.033 48.1707H216.945C216.263 49.5644 215.167 50.2613 213.657 50.2613C212.96 50.2613 212.329 50.1234 211.762 49.8476C211.196 49.5717 210.71 49.1797 210.303 48.6716C209.911 48.1634 209.606 47.5464 209.389 46.8204C209.185 46.0945 209.084 45.2815 209.084 44.3813C209.084 43.4812 209.185 42.6681 209.389 41.9422C209.606 41.2163 209.911 40.5993 210.303 40.0911C210.71 39.583 211.196 39.191 211.762 38.9151C212.329 38.6393 212.96 38.5013 213.657 38.5013C214.441 38.5013 215.109 38.6756 215.661 39.024C216.227 39.3579 216.655 39.8806 216.945 40.592H217.033V33.8844H218.775V50H217.033V48.1707ZM214.136 48.6933C214.528 48.6933 214.898 48.6425 215.247 48.5409C215.61 48.4393 215.922 48.2941 216.183 48.1053C216.445 47.9021 216.648 47.6625 216.793 47.3867C216.953 47.0963 217.033 46.7696 217.033 46.4067V42.2253C217.033 41.9204 216.953 41.6373 216.793 41.376C216.648 41.1001 216.445 40.8679 216.183 40.6791C215.922 40.4904 215.61 40.3452 215.247 40.2436C214.898 40.1274 214.528 40.0693 214.136 40.0693C213.149 40.0693 212.372 40.3815 211.806 41.0058C211.24 41.6156 210.957 42.4213 210.957 43.4231V45.3396C210.957 46.3413 211.24 47.1544 211.806 47.7787C212.372 48.3884 213.149 48.6933 214.136 48.6933ZM223.35 36.1276C222.972 36.1276 222.696 36.0404 222.522 35.8662C222.363 35.6775 222.283 35.4379 222.283 35.1476V34.8644C222.283 34.5741 222.363 34.3418 222.522 34.1676C222.696 33.9788 222.972 33.8844 223.35 33.8844C223.727 33.8844 223.996 33.9788 224.156 34.1676C224.33 34.3418 224.417 34.5741 224.417 34.8644V35.1476C224.417 35.4379 224.33 35.6775 224.156 35.8662C223.996 36.0404 223.727 36.1276 223.35 36.1276ZM222.479 38.7627H224.221V50H222.479V38.7627ZM232.17 50.2613C231.415 50.2613 230.725 50.1234 230.101 49.8476C229.477 49.5717 228.939 49.1797 228.489 48.6716C228.054 48.1489 227.713 47.5319 227.466 46.8204C227.219 46.0945 227.096 45.2815 227.096 44.3813C227.096 43.4957 227.219 42.6899 227.466 41.964C227.713 41.2381 228.054 40.621 228.489 40.1129C228.939 39.5902 229.477 39.191 230.101 38.9151C230.725 38.6393 231.415 38.5013 232.17 38.5013C232.925 38.5013 233.607 38.6393 234.217 38.9151C234.841 39.191 235.378 39.5902 235.828 40.1129C236.279 40.621 236.627 41.2381 236.874 41.964C237.121 42.6899 237.244 43.4957 237.244 44.3813C237.244 45.2815 237.121 46.0945 236.874 46.8204C236.627 47.5319 236.279 48.1489 235.828 48.6716C235.378 49.1797 234.841 49.5717 234.217 49.8476C233.607 50.1234 232.925 50.2613 232.17 50.2613ZM232.17 48.7151C233.114 48.7151 233.883 48.4247 234.478 47.844C235.074 47.2633 235.371 46.3776 235.371 45.1871V43.5756C235.371 42.385 235.074 41.4994 234.478 40.9187C233.883 40.3379 233.114 40.0476 232.17 40.0476C231.226 40.0476 230.457 40.3379 229.861 40.9187C229.266 41.4994 228.968 42.385 228.968 43.5756V45.1871C228.968 46.3776 229.266 47.2633 229.861 47.844C230.457 48.4247 231.226 48.7151 232.17 48.7151ZM239.684 39.9822V33.8844H241.252V39.9822H239.684ZM248.334 50.2613C247.289 50.2613 246.41 50.0653 245.699 49.6733C245.002 49.2668 244.399 48.7296 243.891 48.0618L245.133 47.06C245.568 47.6117 246.054 48.04 246.592 48.3449C247.129 48.6353 247.753 48.7804 248.465 48.7804C249.205 48.7804 249.778 48.6207 250.185 48.3013C250.606 47.9819 250.817 47.5319 250.817 46.9511C250.817 46.5156 250.671 46.1453 250.381 45.8404C250.105 45.521 249.597 45.3033 248.857 45.1871L247.964 45.0564C247.441 44.9839 246.962 44.875 246.526 44.7298C246.091 44.5701 245.706 44.3668 245.372 44.12C245.053 43.8587 244.799 43.5393 244.61 43.1618C244.436 42.7843 244.349 42.3342 244.349 41.8116C244.349 41.2599 244.45 40.7807 244.653 40.3742C244.857 39.9532 245.133 39.6047 245.481 39.3289C245.844 39.053 246.272 38.8498 246.766 38.7191C247.259 38.5739 247.789 38.5013 248.356 38.5013C249.27 38.5013 250.033 38.661 250.642 38.9804C251.267 39.2999 251.811 39.7427 252.276 40.3089L251.121 41.3542C250.875 41.0058 250.512 40.6936 250.033 40.4178C249.553 40.1274 248.951 39.9822 248.225 39.9822C247.499 39.9822 246.947 40.1419 246.57 40.4613C246.207 40.7662 246.025 41.1873 246.025 41.7244C246.025 42.2761 246.207 42.6754 246.57 42.9222C246.947 43.169 247.485 43.3505 248.181 43.4667L249.053 43.5973C250.301 43.7861 251.187 44.149 251.709 44.6862C252.232 45.2089 252.493 45.8985 252.493 46.7551C252.493 47.844 252.123 48.7006 251.383 49.3249C250.642 49.9492 249.626 50.2613 248.334 50.2613ZM264.942 50.2613C264.173 50.2613 263.476 50.1234 262.852 49.8476C262.242 49.5717 261.712 49.1797 261.262 48.6716C260.826 48.1489 260.485 47.5319 260.238 46.8204C260.006 46.0945 259.89 45.2815 259.89 44.3813C259.89 43.4957 260.006 42.6899 260.238 41.964C260.485 41.2381 260.826 40.621 261.262 40.1129C261.712 39.5902 262.242 39.191 262.852 38.9151C263.476 38.6393 264.173 38.5013 264.942 38.5013C265.697 38.5013 266.372 38.6393 266.968 38.9151C267.563 39.191 268.071 39.5757 268.492 40.0693C268.913 40.5484 269.233 41.1219 269.45 41.7898C269.683 42.4576 269.799 43.1908 269.799 43.9893V44.8169H261.719V45.3396C261.719 45.8187 261.792 46.2687 261.937 46.6898C262.097 47.0963 262.314 47.452 262.59 47.7569C262.881 48.0618 263.229 48.3013 263.636 48.4756C264.057 48.6498 264.529 48.7369 265.051 48.7369C265.763 48.7369 266.38 48.5699 266.902 48.236C267.439 47.9021 267.853 47.423 268.144 46.7987L269.385 47.6916C269.022 48.461 268.456 49.0853 267.686 49.5644C266.917 50.029 266.002 50.2613 264.942 50.2613ZM264.942 39.9604C264.463 39.9604 264.028 40.0476 263.636 40.2218C263.244 40.3815 262.902 40.6138 262.612 40.9187C262.336 41.2236 262.118 41.5865 261.959 42.0076C261.799 42.4141 261.719 42.8641 261.719 43.3578V43.5102H267.926V43.2707C267.926 42.2689 267.65 41.4704 267.098 40.8751C266.561 40.2653 265.842 39.9604 264.942 39.9604ZM271.021 50L275.18 44.3378L271.195 38.7627H273.242L276.095 42.944H276.16L279.122 38.7627H281.06L277.097 44.2071L281.147 50H279.1L276.182 45.6009H276.117L272.959 50H271.021ZM283.452 38.7627H285.194V40.592H285.282C285.572 39.8806 285.993 39.3579 286.545 39.024C287.111 38.6756 287.786 38.5013 288.57 38.5013C289.267 38.5013 289.898 38.6393 290.465 38.9151C291.031 39.191 291.51 39.583 291.902 40.0911C292.309 40.5993 292.613 41.2163 292.817 41.9422C293.034 42.6681 293.143 43.4812 293.143 44.3813C293.143 45.2815 293.034 46.0945 292.817 46.8204C292.613 47.5464 292.309 48.1634 291.902 48.6716C291.51 49.1797 291.031 49.5717 290.465 49.8476C289.898 50.1234 289.267 50.2613 288.57 50.2613C287.046 50.2613 285.949 49.5644 285.282 48.1707H285.194V54.3556H283.452V38.7627ZM288.091 48.6933C289.078 48.6933 289.855 48.3884 290.421 47.7787C290.987 47.1544 291.27 46.3413 291.27 45.3396V43.4231C291.27 42.4213 290.987 41.6156 290.421 41.0058C289.855 40.3815 289.078 40.0693 288.091 40.0693C287.699 40.0693 287.321 40.1274 286.958 40.2436C286.61 40.3452 286.305 40.4904 286.044 40.6791C285.782 40.8679 285.572 41.1001 285.412 41.376C285.267 41.6373 285.194 41.9204 285.194 42.2253V46.4067C285.194 46.7696 285.267 47.0963 285.412 47.3867C285.572 47.6625 285.782 47.9021 286.044 48.1053C286.305 48.2941 286.61 48.4393 286.958 48.5409C287.321 48.6425 287.699 48.6933 288.091 48.6933ZM300.31 50.2613C299.54 50.2613 298.844 50.1234 298.219 49.8476C297.609 49.5717 297.08 49.1797 296.629 48.6716C296.194 48.1489 295.853 47.5319 295.606 46.8204C295.374 46.0945 295.257 45.2815 295.257 44.3813C295.257 43.4957 295.374 42.6899 295.606 41.964C295.853 41.2381 296.194 40.621 296.629 40.1129C297.08 39.5902 297.609 39.191 298.219 38.9151C298.844 38.6393 299.54 38.5013 300.31 38.5013C301.065 38.5013 301.74 38.6393 302.335 38.9151C302.931 39.191 303.439 39.5757 303.86 40.0693C304.281 40.5484 304.6 41.1219 304.818 41.7898C305.05 42.4576 305.166 43.1908 305.166 43.9893V44.8169H297.087V45.3396C297.087 45.8187 297.159 46.2687 297.305 46.6898C297.464 47.0963 297.682 47.452 297.958 47.7569C298.248 48.0618 298.597 48.3013 299.003 48.4756C299.424 48.6498 299.896 48.7369 300.419 48.7369C301.13 48.7369 301.747 48.5699 302.27 48.236C302.807 47.9021 303.221 47.423 303.511 46.7987L304.753 47.6916C304.39 48.461 303.823 49.0853 303.054 49.5644C302.284 50.029 301.37 50.2613 300.31 50.2613ZM300.31 39.9604C299.831 39.9604 299.395 40.0476 299.003 40.2218C298.611 40.3815 298.27 40.6138 297.98 40.9187C297.704 41.2236 297.486 41.5865 297.326 42.0076C297.167 42.4141 297.087 42.8641 297.087 43.3578V43.5102H303.293V43.2707C303.293 42.2689 303.018 41.4704 302.466 40.8751C301.929 40.2653 301.21 39.9604 300.31 39.9604ZM308.037 50V38.7627H309.78V40.8316H309.888C310.092 40.2944 310.455 39.8153 310.977 39.3942C311.5 38.9732 312.219 38.7627 313.133 38.7627H313.808V40.5049H312.785C311.841 40.5049 311.101 40.6864 310.564 41.0493C310.041 41.3978 309.78 41.8406 309.78 42.3778V50H308.037ZM318.602 50C317.992 50 317.527 49.833 317.208 49.4991C316.903 49.1507 316.75 48.7006 316.75 48.1489V40.2871H314.899V38.7627H315.945C316.322 38.7627 316.576 38.6901 316.707 38.5449C316.852 38.3852 316.925 38.1166 316.925 37.7391V35.6484H318.493V38.7627H320.954V40.2871H318.493V48.4756H320.779V50H318.602ZM324.625 36.1276C324.248 36.1276 323.972 36.0404 323.797 35.8662C323.638 35.6775 323.558 35.4379 323.558 35.1476V34.8644C323.558 34.5741 323.638 34.3418 323.797 34.1676C323.972 33.9788 324.248 33.8844 324.625 33.8844C325.002 33.8844 325.271 33.9788 325.431 34.1676C325.605 34.3418 325.692 34.5741 325.692 34.8644V35.1476C325.692 35.4379 325.605 35.6775 325.431 35.8662C325.271 36.0404 325.002 36.1276 324.625 36.1276ZM323.754 38.7627H325.496V50H323.754V38.7627ZM332.574 50.2613C331.529 50.2613 330.65 50.0653 329.939 49.6733C329.242 49.2668 328.639 48.7296 328.131 48.0618L329.373 47.06C329.808 47.6117 330.294 48.04 330.832 48.3449C331.369 48.6353 331.993 48.7804 332.705 48.7804C333.445 48.7804 334.018 48.6207 334.425 48.3013C334.846 47.9819 335.057 47.5319 335.057 46.9511C335.057 46.5156 334.911 46.1453 334.621 45.8404C334.345 45.521 333.837 45.3033 333.097 45.1871L332.204 45.0564C331.681 44.9839 331.202 44.875 330.766 44.7298C330.331 44.5701 329.946 44.3668 329.612 44.12C329.293 43.8587 329.039 43.5393 328.85 43.1618C328.676 42.7843 328.589 42.3342 328.589 41.8116C328.589 41.2599 328.69 40.7807 328.893 40.3742C329.097 39.9532 329.373 39.6047 329.721 39.3289C330.084 39.053 330.512 38.8498 331.006 38.7191C331.499 38.5739 332.029 38.5013 332.596 38.5013C333.51 38.5013 334.273 38.661 334.882 38.9804C335.507 39.2999 336.051 39.7427 336.516 40.3089L335.361 41.3542C335.115 41.0058 334.752 40.6936 334.273 40.4178C333.793 40.1274 333.191 39.9822 332.465 39.9822C331.739 39.9822 331.187 40.1419 330.81 40.4613C330.447 40.7662 330.265 41.1873 330.265 41.7244C330.265 42.2761 330.447 42.6754 330.81 42.9222C331.187 43.169 331.725 43.3505 332.421 43.4667L333.293 43.5973C334.541 43.7861 335.427 44.149 335.949 44.6862C336.472 45.2089 336.733 45.8985 336.733 46.7551C336.733 47.844 336.363 48.7006 335.623 49.3249C334.882 49.9492 333.866 50.2613 332.574 50.2613ZM344.036 50.2613C343.266 50.2613 342.569 50.1234 341.945 49.8476C341.335 49.5717 340.805 49.1797 340.355 48.6716C339.92 48.1489 339.578 47.5319 339.332 46.8204C339.099 46.0945 338.983 45.2815 338.983 44.3813C338.983 43.4957 339.099 42.6899 339.332 41.964C339.578 41.2381 339.92 40.621 340.355 40.1129C340.805 39.5902 341.335 39.191 341.945 38.9151C342.569 38.6393 343.266 38.5013 344.036 38.5013C344.791 38.5013 345.466 38.6393 346.061 38.9151C346.656 39.191 347.164 39.5757 347.585 40.0693C348.006 40.5484 348.326 41.1219 348.544 41.7898C348.776 42.4576 348.892 43.1908 348.892 43.9893V44.8169H340.813V45.3396C340.813 45.8187 340.885 46.2687 341.03 46.6898C341.19 47.0963 341.408 47.452 341.684 47.7569C341.974 48.0618 342.322 48.3013 342.729 48.4756C343.15 48.6498 343.622 48.7369 344.145 48.7369C344.856 48.7369 345.473 48.5699 345.996 48.236C346.533 47.9021 346.947 47.423 347.237 46.7987L348.478 47.6916C348.115 48.461 347.549 49.0853 346.78 49.5644C346.01 50.029 345.095 50.2613 344.036 50.2613ZM344.036 39.9604C343.557 39.9604 343.121 40.0476 342.729 40.2218C342.337 40.3815 341.996 40.6138 341.705 40.9187C341.43 41.2236 341.212 41.5865 341.052 42.0076C340.892 42.4141 340.813 42.8641 340.813 43.3578V43.5102H347.019V43.2707C347.019 42.2689 346.743 41.4704 346.192 40.8751C345.654 40.2653 344.936 39.9604 344.036 39.9604Z" fill="#1B1C1E"/>
<path d="M39.0859 16.7905V15.2464C39.0859 14.2435 38.27 13.4276 37.2671 13.4276C36.2643 13.4276 35.4484 14.2435 35.4484 15.2464V16.7905C34.6041 17.3712 34.0493 18.3437 34.0493 19.4435C34.0493 21.2179 35.4929 22.6614 37.2671 22.6614C39.0415 22.6614 40.485 21.2179 40.485 19.4436C40.485 18.3437 39.9302 17.3712 39.0859 16.7905ZM37.6869 19.3928V20.0032C37.6869 20.235 37.499 20.4229 37.2671 20.4229C37.0354 20.4229 36.8474 20.235 36.8474 20.0032V19.3928C36.7606 19.2942 36.7075 19.1652 36.7075 19.0238C36.7075 18.7153 36.9586 18.4642 37.2671 18.4642C37.5757 18.4642 37.8267 18.7153 37.8267 19.0238C37.8268 19.1652 37.7737 19.2941 37.6869 19.3928ZM38.2465 16.3783C37.9375 16.2793 37.6085 16.2257 37.2671 16.2257C36.9258 16.2257 36.5967 16.2793 36.2878 16.3783V15.2464C36.2878 14.7064 36.7271 14.267 37.2671 14.267C37.8072 14.267 38.2465 14.7064 38.2465 15.2464V16.3783Z" fill="#1B1C1E"/>
</svg>
