<svg width="1125" height="182" viewBox="0 0 1125 182" fill="none" xmlns="http://www.w3.org/2000/svg">
<path d="M16.59 23.14L10.64 53.1C10.3133 54.5933 10.08 55.83 9.94 56.81C9.84667 57.7433 9.8 58.6533 9.8 59.54C9.8 62.5733 10.64 64.9533 12.32 66.68C14.0467 68.36 16.5667 69.2 19.88 69.2C22.12 69.2 24.0567 68.92 25.69 68.36C27.37 67.7533 28.8167 66.7967 30.03 65.49C31.29 64.1367 32.34 62.41 33.18 60.31C34.0667 58.1633 34.8133 55.55 35.42 52.47L41.3 23.14H45.36L39.41 52.75C38.6633 56.4833 37.73 59.6333 36.61 62.2C35.5367 64.7667 34.2067 66.8433 32.62 68.43C31.08 70.0167 29.2133 71.16 27.02 71.86C24.8733 72.5133 22.3533 72.84 19.46 72.84C15.1667 72.84 11.8067 71.7433 9.38 69.55C7 67.31 5.81 64.09 5.81 59.89C5.81 58.7233 5.88 57.51 6.02 56.25C6.20667 54.99 6.46333 53.5433 6.79 51.91L12.53 23.14H16.59ZM48.5373 72L55.6773 36.16H59.5973L58.1273 43.37H58.4073C59.714 40.6633 61.2773 38.6567 63.0973 37.35C64.964 35.9967 67.274 35.32 70.0273 35.32C73.1073 35.32 75.4173 36.1833 76.9573 37.91C78.4973 39.59 79.2673 41.97 79.2673 45.05C79.2673 45.7033 79.2207 46.45 79.1273 47.29C79.0807 48.0833 78.964 48.8767 78.7773 49.67L74.9973 68.57H80.4573L79.7573 72H74.5773C73.504 72 72.664 71.7667 72.0573 71.3C71.4507 70.7867 71.1473 70.04 71.1473 69.06C71.1473 68.7333 71.1707 68.43 71.2173 68.15C71.264 67.8233 71.334 67.4733 71.4273 67.1L74.9273 49.67C75.0673 48.9233 75.1607 48.2 75.2073 47.5C75.3007 46.7533 75.3473 46.1467 75.3473 45.68C75.3473 41.1067 73.1773 38.82 68.8373 38.82C67.4373 38.82 66.084 39.1 64.7773 39.66C63.5173 40.1733 62.304 41.0367 61.1373 42.25C60.1107 43.3233 59.1773 44.6533 58.3373 46.24C57.4973 47.8267 56.8907 49.4833 56.5173 51.21L52.3873 72H48.5373ZM91.9105 72C90.6972 72 89.7872 71.72 89.1805 71.16C88.6205 70.5533 88.3405 69.76 88.3405 68.78C88.3405 68.5467 88.3405 68.36 88.3405 68.22C88.3405 68.0333 88.3872 67.7533 88.4805 67.38L97.9305 20.2H101.781L92.1205 68.57H97.7905L97.0905 72H91.9105ZM151.522 72.84C149.515 72.84 147.742 72.49 146.202 71.79C144.662 71.09 143.355 70.11 142.282 68.85C141.255 67.59 140.462 66.0733 139.902 64.3C139.388 62.5267 139.132 60.5667 139.132 58.42C139.132 55.2467 139.528 52.26 140.322 49.46C141.115 46.66 142.235 44.21 143.682 42.11C145.175 40.01 146.995 38.3533 149.142 37.14C151.288 35.9267 153.738 35.32 156.492 35.32C159.525 35.32 162.022 36.09 163.982 37.63C165.942 39.17 167.225 41.1767 167.832 43.65L164.612 44.98C163.445 40.8267 160.692 38.75 156.352 38.75C153.272 38.75 150.682 39.8233 148.582 41.97C146.482 44.07 145.082 46.94 144.382 50.58L143.402 55.48C143.308 56.1333 143.215 56.7633 143.122 57.37C143.075 57.93 143.052 58.5133 143.052 59.12C143.052 62.06 143.775 64.51 145.222 66.47C146.668 68.43 148.885 69.41 151.872 69.41C154.018 69.41 155.932 68.8267 157.612 67.66C159.338 66.4467 160.948 64.5333 162.442 61.92L165.522 63.39C163.935 66.33 161.975 68.64 159.642 70.32C157.308 72 154.602 72.84 151.522 72.84ZM182.628 20.2H186.478L179.688 54.22H179.968L186.968 47.92L200.338 36.16H205.098L188.648 50.86L196.978 68.57H201.388L200.688 72H197.468C196.254 72 195.321 71.79 194.668 71.37C194.061 70.95 193.524 70.2033 193.058 69.13L185.568 53.1L178.708 59.12L176.118 72H172.268L182.628 20.2ZM249.216 35.88H254.746L238.576 80.4C238.156 81.4733 237.736 82.36 237.316 83.06C236.896 83.8067 236.383 84.39 235.776 84.81C235.169 85.23 234.399 85.5333 233.466 85.72C232.579 85.9067 231.483 86 230.176 86H227.306V81.1H232.976L235.706 73.4L222.196 35.88H227.796L236.476 60.45L238.156 66.33H238.506L240.466 60.45L249.216 35.88ZM275.196 72.84C272.769 72.84 270.552 72.3967 268.546 71.51C266.539 70.6233 264.812 69.3633 263.366 67.73C261.966 66.05 260.869 64.0667 260.076 61.78C259.282 59.4467 258.886 56.8333 258.886 53.94C258.886 51.0933 259.282 48.5033 260.076 46.17C260.869 43.8367 261.966 41.8533 263.366 40.22C264.812 38.54 266.539 37.2567 268.546 36.37C270.552 35.4833 272.769 35.04 275.196 35.04C277.622 35.04 279.816 35.4833 281.776 36.37C283.782 37.2567 285.509 38.54 286.956 40.22C288.402 41.8533 289.522 43.8367 290.316 46.17C291.109 48.5033 291.506 51.0933 291.506 53.94C291.506 56.8333 291.109 59.4467 290.316 61.78C289.522 64.0667 288.402 66.05 286.956 67.73C285.509 69.3633 283.782 70.6233 281.776 71.51C279.816 72.3967 277.622 72.84 275.196 72.84ZM275.196 67.87C278.229 67.87 280.702 66.9367 282.616 65.07C284.529 63.2033 285.486 60.3567 285.486 56.53V51.35C285.486 47.5233 284.529 44.6767 282.616 42.81C280.702 40.9433 278.229 40.01 275.196 40.01C272.162 40.01 269.689 40.9433 267.776 42.81C265.862 44.6767 264.906 47.5233 264.906 51.35V56.53C264.906 60.3567 265.862 63.2033 267.776 65.07C269.689 66.9367 272.162 67.87 275.196 67.87ZM322.976 66.12H322.696C322.322 66.96 321.856 67.8 321.296 68.64C320.782 69.4333 320.129 70.1567 319.336 70.81C318.542 71.4167 317.586 71.9067 316.466 72.28C315.346 72.6533 314.039 72.84 312.546 72.84C308.812 72.84 305.849 71.65 303.656 69.27C301.462 66.8433 300.366 63.4367 300.366 59.05V35.88H305.966V58.07C305.966 64.5567 308.719 67.8 314.226 67.8C315.346 67.8 316.419 67.66 317.446 67.38C318.519 67.1 319.452 66.68 320.246 66.12C321.086 65.56 321.739 64.86 322.206 64.02C322.719 63.1333 322.976 62.0833 322.976 60.87V35.88H328.576V72H322.976V66.12ZM340.501 72V35.88H346.101V42.53H346.451C347.104 40.8033 348.271 39.2633 349.951 37.91C351.631 36.5567 353.941 35.88 356.881 35.88H359.051V41.48H355.761C352.727 41.48 350.347 42.0633 348.621 43.23C346.941 44.35 346.101 45.7733 346.101 47.5V72H340.501ZM405.847 66.12H405.567C403.374 70.6 399.85 72.84 394.997 72.84C392.757 72.84 390.727 72.3967 388.907 71.51C387.087 70.6233 385.524 69.3633 384.217 67.73C382.957 66.0967 381.977 64.1133 381.277 61.78C380.624 59.4467 380.297 56.8333 380.297 53.94C380.297 51.0467 380.624 48.4333 381.277 46.1C381.977 43.7667 382.957 41.7833 384.217 40.15C385.524 38.5167 387.087 37.2567 388.907 36.37C390.727 35.4833 392.757 35.04 394.997 35.04C397.517 35.04 399.664 35.6 401.437 36.72C403.257 37.7933 404.634 39.4733 405.567 41.76H405.847V20.2H411.447V72H405.847V66.12ZM396.537 67.8C397.797 67.8 398.987 67.6367 400.107 67.31C401.274 66.9833 402.277 66.5167 403.117 65.91C403.957 65.2567 404.61 64.4867 405.077 63.6C405.59 62.6667 405.847 61.6167 405.847 60.45V47.01C405.847 46.03 405.59 45.12 405.077 44.28C404.61 43.3933 403.957 42.6467 403.117 42.04C402.277 41.4333 401.274 40.9667 400.107 40.64C398.987 40.2667 397.797 40.08 396.537 40.08C393.364 40.08 390.867 41.0833 389.047 43.09C387.227 45.05 386.317 47.64 386.317 50.86V57.02C386.317 60.24 387.227 62.8533 389.047 64.86C390.867 66.82 393.364 67.8 396.537 67.8ZM436.932 72.84C434.459 72.84 432.219 72.3967 430.212 71.51C428.252 70.6233 426.549 69.3633 425.102 67.73C423.702 66.05 422.606 64.0667 421.812 61.78C421.066 59.4467 420.692 56.8333 420.692 53.94C420.692 51.0933 421.066 48.5033 421.812 46.17C422.606 43.8367 423.702 41.8533 425.102 40.22C426.549 38.54 428.252 37.2567 430.212 36.37C432.219 35.4833 434.459 35.04 436.932 35.04C439.359 35.04 441.529 35.4833 443.442 36.37C445.356 37.2567 446.989 38.4933 448.342 40.08C449.696 41.62 450.722 43.4633 451.422 45.61C452.169 47.7567 452.542 50.1133 452.542 52.68V55.34H426.572V57.02C426.572 58.56 426.806 60.0067 427.272 61.36C427.786 62.6667 428.486 63.81 429.372 64.79C430.306 65.77 431.426 66.54 432.732 67.1C434.086 67.66 435.602 67.94 437.282 67.94C439.569 67.94 441.552 67.4033 443.232 66.33C444.959 65.2567 446.289 63.7167 447.222 61.71L451.212 64.58C450.046 67.0533 448.226 69.06 445.752 70.6C443.279 72.0933 440.339 72.84 436.932 72.84ZM436.932 39.73C435.392 39.73 433.992 40.01 432.732 40.57C431.472 41.0833 430.376 41.83 429.442 42.81C428.556 43.79 427.856 44.9567 427.342 46.31C426.829 47.6167 426.572 49.0633 426.572 50.65V51.14H446.522V50.37C446.522 47.15 445.636 44.5833 443.862 42.67C442.136 40.71 439.826 39.73 436.932 39.73ZM472.62 72.84C469.26 72.84 466.437 72.21 464.15 70.95C461.91 69.6433 459.974 67.9167 458.34 65.77L462.33 62.55C463.73 64.3233 465.294 65.7 467.02 66.68C468.747 67.6133 470.754 68.08 473.04 68.08C475.42 68.08 477.264 67.5667 478.57 66.54C479.924 65.5133 480.6 64.0667 480.6 62.2C480.6 60.8 480.134 59.61 479.2 58.63C478.314 57.6033 476.68 56.9033 474.3 56.53L471.43 56.11C469.75 55.8767 468.21 55.5267 466.81 55.06C465.41 54.5467 464.174 53.8933 463.1 53.1C462.074 52.26 461.257 51.2333 460.65 50.02C460.09 48.8067 459.81 47.36 459.81 45.68C459.81 43.9067 460.137 42.3667 460.79 41.06C461.444 39.7067 462.33 38.5867 463.45 37.7C464.617 36.8133 465.994 36.16 467.58 35.74C469.167 35.2733 470.87 35.04 472.69 35.04C475.63 35.04 478.08 35.5533 480.04 36.58C482.047 37.6067 483.797 39.03 485.29 40.85L481.58 44.21C480.787 43.09 479.62 42.0867 478.08 41.2C476.54 40.2667 474.604 39.8 472.27 39.8C469.937 39.8 468.164 40.3133 466.95 41.34C465.784 42.32 465.2 43.6733 465.2 45.4C465.2 47.1733 465.784 48.4567 466.95 49.25C468.164 50.0433 469.89 50.6267 472.13 51L474.93 51.42C478.944 52.0267 481.79 53.1933 483.47 54.92C485.15 56.6 485.99 58.8167 485.99 61.57C485.99 65.07 484.8 67.8233 482.42 69.83C480.04 71.8367 476.774 72.84 472.62 72.84ZM498.682 27.41C497.468 27.41 496.582 27.13 496.022 26.57C495.508 25.9633 495.252 25.1933 495.252 24.26V23.35C495.252 22.4167 495.508 21.67 496.022 21.11C496.582 20.5033 497.468 20.2 498.682 20.2C499.895 20.2 500.758 20.5033 501.272 21.11C501.832 21.67 502.112 22.4167 502.112 23.35V24.26C502.112 25.1933 501.832 25.9633 501.272 26.57C500.758 27.13 499.895 27.41 498.682 27.41ZM495.882 35.88H501.482V72H495.882V35.88ZM543.832 75.99C543.832 79.7233 542.362 82.4533 539.422 84.18C536.528 85.9533 532.165 86.84 526.332 86.84C520.685 86.84 516.625 86.07 514.152 84.53C511.678 82.99 510.442 80.7967 510.442 77.95C510.442 75.99 510.955 74.45 511.982 73.33C513.008 72.2567 514.408 71.4633 516.182 70.95V70.18C514.035 69.1533 512.962 67.4733 512.962 65.14C512.962 63.32 513.545 61.9433 514.712 61.01C515.878 60.03 517.372 59.3067 519.192 58.84V58.56C517.045 57.5333 515.365 56.0633 514.152 54.15C512.985 52.2367 512.402 50.02 512.402 47.5C512.402 45.68 512.728 44 513.382 42.46C514.035 40.92 514.945 39.6133 516.112 38.54C517.325 37.42 518.748 36.5567 520.382 35.95C522.062 35.3433 523.928 35.04 525.982 35.04C528.548 35.04 530.835 35.5067 532.842 36.44V35.81C532.842 34.41 533.168 33.2667 533.822 32.38C534.475 31.4467 535.548 30.98 537.042 30.98H542.432V35.88H535.572V38.19C536.878 39.31 537.882 40.6633 538.582 42.25C539.328 43.79 539.702 45.54 539.702 47.5C539.702 49.32 539.375 51 538.722 52.54C538.068 54.08 537.135 55.41 535.922 56.53C534.755 57.6033 533.332 58.4433 531.652 59.05C529.972 59.6567 528.105 59.96 526.052 59.96C524.885 59.96 523.718 59.8433 522.552 59.61C521.338 59.9367 520.242 60.4267 519.262 61.08C518.282 61.6867 517.792 62.55 517.792 63.67C517.792 64.7433 518.305 65.4667 519.332 65.84C520.358 66.2133 521.688 66.4 523.322 66.4H531.022C535.502 66.4 538.745 67.2633 540.752 68.99C542.805 70.67 543.832 73.0033 543.832 75.99ZM538.582 76.41C538.582 74.9633 538.022 73.7967 536.902 72.91C535.828 72.07 533.892 71.65 531.092 71.65H519.052C516.812 72.6767 515.692 74.31 515.692 76.55C515.692 78.1367 516.275 79.49 517.442 80.61C518.655 81.73 520.685 82.29 523.532 82.29H528.712C531.838 82.29 534.265 81.8 535.992 80.82C537.718 79.84 538.582 78.37 538.582 76.41ZM526.052 55.48C528.432 55.48 530.322 54.92 531.722 53.8C533.122 52.6333 533.822 50.86 533.822 48.48V46.52C533.822 44.14 533.122 42.39 531.722 41.27C530.322 40.1033 528.432 39.52 526.052 39.52C523.672 39.52 521.782 40.1033 520.382 41.27C518.982 42.39 518.282 44.14 518.282 46.52V48.48C518.282 50.86 518.982 52.6333 520.382 53.8C521.782 54.92 523.672 55.48 526.052 55.48ZM550.364 72V35.88H555.964V41.76H556.244C557.131 39.7067 558.367 38.0733 559.954 36.86C561.587 35.6467 563.757 35.04 566.464 35.04C570.197 35.04 573.137 36.2533 575.284 38.68C577.477 41.06 578.574 44.4433 578.574 48.83V72H572.974V49.81C572.974 43.3233 570.244 40.08 564.784 40.08C563.664 40.08 562.567 40.22 561.494 40.5C560.467 40.78 559.534 41.2 558.694 41.76C557.854 42.32 557.177 43.0433 556.664 43.93C556.197 44.77 555.964 45.7733 555.964 46.94V72H550.364ZM5.95 126.88H11.55V132.76H11.83C12.7633 130.473 14.1167 128.793 15.89 127.72C17.71 126.6 19.88 126.04 22.4 126.04C24.64 126.04 26.67 126.483 28.49 127.37C30.31 128.257 31.85 129.517 33.11 131.15C34.4167 132.783 35.3967 134.767 36.05 137.1C36.75 139.433 37.1 142.047 37.1 144.94C37.1 147.833 36.75 150.447 36.05 152.78C35.3967 155.113 34.4167 157.097 33.11 158.73C31.85 160.363 30.31 161.623 28.49 162.51C26.67 163.397 24.64 163.84 22.4 163.84C17.5 163.84 13.9767 161.6 11.83 157.12H11.55V177H5.95V126.88ZM20.86 158.8C24.0333 158.8 26.53 157.82 28.35 155.86C30.17 153.853 31.08 151.24 31.08 148.02V141.86C31.08 138.64 30.17 136.05 28.35 134.09C26.53 132.083 24.0333 131.08 20.86 131.08C19.6 131.08 18.3867 131.267 17.22 131.64C16.1 131.967 15.12 132.433 14.28 133.04C13.44 133.647 12.7633 134.393 12.25 135.28C11.7833 136.12 11.55 137.03 11.55 138.01V151.45C11.55 152.617 11.7833 153.667 12.25 154.6C12.7633 155.487 13.44 156.257 14.28 156.91C15.12 157.517 16.1 157.983 17.22 158.31C18.3867 158.637 19.6 158.8 20.86 158.8ZM60.2055 163.84C57.7788 163.84 55.5621 163.397 53.5555 162.51C51.5488 161.623 49.8221 160.363 48.3755 158.73C46.9755 157.05 45.8788 155.067 45.0855 152.78C44.2921 150.447 43.8955 147.833 43.8955 144.94C43.8955 142.093 44.2921 139.503 45.0855 137.17C45.8788 134.837 46.9755 132.853 48.3755 131.22C49.8221 129.54 51.5488 128.257 53.5555 127.37C55.5621 126.483 57.7788 126.04 60.2055 126.04C62.6321 126.04 64.8255 126.483 66.7855 127.37C68.7921 128.257 70.5188 129.54 71.9655 131.22C73.4121 132.853 74.5321 134.837 75.3255 137.17C76.1188 139.503 76.5155 142.093 76.5155 144.94C76.5155 147.833 76.1188 150.447 75.3255 152.78C74.5321 155.067 73.4121 157.05 71.9655 158.73C70.5188 160.363 68.7921 161.623 66.7855 162.51C64.8255 163.397 62.6321 163.84 60.2055 163.84ZM60.2055 158.87C63.2388 158.87 65.7121 157.937 67.6255 156.07C69.5388 154.203 70.4955 151.357 70.4955 147.53V142.35C70.4955 138.523 69.5388 135.677 67.6255 133.81C65.7121 131.943 63.2388 131.01 60.2055 131.01C57.1721 131.01 54.6988 131.943 52.7855 133.81C50.8721 135.677 49.9155 138.523 49.9155 142.35V147.53C49.9155 151.357 50.8721 154.203 52.7855 156.07C54.6988 157.937 57.1721 158.87 60.2055 158.87ZM93.7054 163C91.7454 163 90.2521 162.463 89.2254 161.39C88.2454 160.27 87.7554 158.823 87.7554 157.05V131.78H81.8054V126.88H85.1654C86.3787 126.88 87.1954 126.647 87.6154 126.18C88.0821 125.667 88.3154 124.803 88.3154 123.59V116.87H93.3554V126.88H101.265V131.78H93.3554V158.1H100.705V163H93.7054ZM123.573 163.84C121.1 163.84 118.86 163.397 116.853 162.51C114.893 161.623 113.19 160.363 111.743 158.73C110.343 157.05 109.246 155.067 108.453 152.78C107.706 150.447 107.333 147.833 107.333 144.94C107.333 142.093 107.706 139.503 108.453 137.17C109.246 134.837 110.343 132.853 111.743 131.22C113.19 129.54 114.893 128.257 116.853 127.37C118.86 126.483 121.1 126.04 123.573 126.04C126 126.04 128.17 126.483 130.083 127.37C131.996 128.257 133.63 129.493 134.983 131.08C136.336 132.62 137.363 134.463 138.063 136.61C138.81 138.757 139.183 141.113 139.183 143.68V146.34H113.213V148.02C113.213 149.56 113.446 151.007 113.913 152.36C114.426 153.667 115.126 154.81 116.013 155.79C116.946 156.77 118.066 157.54 119.373 158.1C120.726 158.66 122.243 158.94 123.923 158.94C126.21 158.94 128.193 158.403 129.873 157.33C131.6 156.257 132.93 154.717 133.863 152.71L137.853 155.58C136.686 158.053 134.866 160.06 132.393 161.6C129.92 163.093 126.98 163.84 123.573 163.84ZM123.573 130.73C122.033 130.73 120.633 131.01 119.373 131.57C118.113 132.083 117.016 132.83 116.083 133.81C115.196 134.79 114.496 135.957 113.983 137.31C113.47 138.617 113.213 140.063 113.213 141.65V142.14H133.163V141.37C133.163 138.15 132.276 135.583 130.503 133.67C128.776 131.71 126.466 130.73 123.573 130.73ZM148.411 163V126.88H154.011V132.76H154.291C155.178 130.707 156.414 129.073 158.001 127.86C159.634 126.647 161.804 126.04 164.511 126.04C168.244 126.04 171.184 127.253 173.331 129.68C175.524 132.06 176.621 135.443 176.621 139.83V163H171.021V140.81C171.021 134.323 168.291 131.08 162.831 131.08C161.711 131.08 160.614 131.22 159.541 131.5C158.514 131.78 157.581 132.2 156.741 132.76C155.901 133.32 155.224 134.043 154.711 134.93C154.244 135.77 154.011 136.773 154.011 137.94V163H148.411ZM196.176 163C194.216 163 192.723 162.463 191.696 161.39C190.716 160.27 190.226 158.823 190.226 157.05V131.78H184.276V126.88H187.636C188.849 126.88 189.666 126.647 190.086 126.18C190.553 125.667 190.786 124.803 190.786 123.59V116.87H195.826V126.88H203.736V131.78H195.826V158.1H203.176V163H196.176ZM215.537 118.41C214.324 118.41 213.437 118.13 212.877 117.57C212.364 116.963 212.107 116.193 212.107 115.26V114.35C212.107 113.417 212.364 112.67 212.877 112.11C213.437 111.503 214.324 111.2 215.537 111.2C216.75 111.2 217.614 111.503 218.127 112.11C218.687 112.67 218.967 113.417 218.967 114.35V115.26C218.967 116.193 218.687 116.963 218.127 117.57C217.614 118.13 216.75 118.41 215.537 118.41ZM212.737 126.88H218.337V163H212.737V126.88ZM256.487 163C254.387 163 252.87 162.44 251.937 161.32C251.05 160.2 250.49 158.8 250.257 157.12H249.907C249.114 159.36 247.807 161.04 245.987 162.16C244.167 163.28 241.997 163.84 239.477 163.84C235.65 163.84 232.664 162.86 230.517 160.9C228.417 158.94 227.367 156.28 227.367 152.92C227.367 149.513 228.604 146.9 231.077 145.08C233.597 143.26 237.494 142.35 242.767 142.35H249.907V138.78C249.907 136.213 249.207 134.253 247.807 132.9C246.407 131.547 244.26 130.87 241.367 130.87C239.174 130.87 237.33 131.36 235.837 132.34C234.39 133.32 233.177 134.627 232.197 136.26L228.837 133.11C229.817 131.15 231.38 129.493 233.527 128.14C235.674 126.74 238.38 126.04 241.647 126.04C246.034 126.04 249.44 127.113 251.867 129.26C254.294 131.407 255.507 134.393 255.507 138.22V158.1H259.637V163H256.487ZM240.387 159.08C241.787 159.08 243.07 158.917 244.237 158.59C245.404 158.263 246.407 157.797 247.247 157.19C248.087 156.583 248.74 155.883 249.207 155.09C249.674 154.297 249.907 153.433 249.907 152.5V146.55H242.487C239.267 146.55 236.91 147.017 235.417 147.95C233.97 148.883 233.247 150.237 233.247 152.01V153.48C233.247 155.253 233.877 156.63 235.137 157.61C236.444 158.59 238.194 159.08 240.387 159.08ZM273.58 163C271.62 163 270.126 162.463 269.1 161.39C268.12 160.27 267.63 158.87 267.63 157.19V111.2H273.23V158.1H278.55V163H273.58ZM299.465 126.88H304.925L308.775 142.49L312.625 158.31H312.765L317.175 142.49L321.725 126.88H326.695L331.385 142.49L335.865 158.31H336.005L339.715 142.49L343.635 126.88H348.885L339.295 163H332.365L327.325 145.64L324.175 134.65H324.035L320.955 145.64L315.915 163H309.125L299.465 126.88ZM359.775 118.41C358.562 118.41 357.675 118.13 357.115 117.57C356.602 116.963 356.345 116.193 356.345 115.26V114.35C356.345 113.417 356.602 112.67 357.115 112.11C357.675 111.503 358.562 111.2 359.775 111.2C360.989 111.2 361.852 111.503 362.365 112.11C362.925 112.67 363.205 113.417 363.205 114.35V115.26C363.205 116.193 362.925 116.963 362.365 117.57C361.852 118.13 360.989 118.41 359.775 118.41ZM356.975 126.88H362.575V163H356.975V126.88ZM382.455 163C380.495 163 379.002 162.463 377.975 161.39C376.995 160.27 376.505 158.823 376.505 157.05V131.78H370.555V126.88H373.915C375.129 126.88 375.945 126.647 376.365 126.18C376.832 125.667 377.065 124.803 377.065 123.59V116.87H382.105V126.88H390.015V131.78H382.105V158.1H389.455V163H382.455ZM399.016 111.2H404.616V132.76H404.896C405.783 130.707 407.02 129.073 408.606 127.86C410.24 126.647 412.41 126.04 415.116 126.04C418.85 126.04 421.79 127.253 423.936 129.68C426.13 132.06 427.226 135.443 427.226 139.83V163H421.626V140.81C421.626 134.323 418.896 131.08 413.436 131.08C412.316 131.08 411.22 131.22 410.146 131.5C409.12 131.78 408.186 132.2 407.346 132.76C406.506 133.32 405.83 134.043 405.316 134.93C404.85 135.77 404.616 136.773 404.616 137.94V163H399.016V111.2ZM468.995 163.84C466.568 163.84 464.351 163.397 462.345 162.51C460.338 161.623 458.611 160.363 457.165 158.73C455.765 157.05 454.668 155.067 453.875 152.78C453.081 150.447 452.685 147.833 452.685 144.94C452.685 142.093 453.081 139.503 453.875 137.17C454.668 134.837 455.765 132.853 457.165 131.22C458.611 129.54 460.338 128.257 462.345 127.37C464.351 126.483 466.568 126.04 468.995 126.04C471.421 126.04 473.615 126.483 475.575 127.37C477.581 128.257 479.308 129.54 480.755 131.22C482.201 132.853 483.321 134.837 484.115 137.17C484.908 139.503 485.305 142.093 485.305 144.94C485.305 147.833 484.908 150.447 484.115 152.78C483.321 155.067 482.201 157.05 480.755 158.73C479.308 160.363 477.581 161.623 475.575 162.51C473.615 163.397 471.421 163.84 468.995 163.84ZM468.995 158.87C472.028 158.87 474.501 157.937 476.415 156.07C478.328 154.203 479.285 151.357 479.285 147.53V142.35C479.285 138.523 478.328 135.677 476.415 133.81C474.501 131.943 472.028 131.01 468.995 131.01C465.961 131.01 463.488 131.943 461.575 133.81C459.661 135.677 458.705 138.523 458.705 142.35V147.53C458.705 151.357 459.661 154.203 461.575 156.07C463.488 157.937 465.961 158.87 468.995 158.87ZM516.774 157.12H516.494C516.121 157.96 515.654 158.8 515.094 159.64C514.581 160.433 513.928 161.157 513.134 161.81C512.341 162.417 511.384 162.907 510.264 163.28C509.144 163.653 507.838 163.84 506.344 163.84C502.611 163.84 499.648 162.65 497.454 160.27C495.261 157.843 494.164 154.437 494.164 150.05V126.88H499.764V149.07C499.764 155.557 502.518 158.8 508.024 158.8C509.144 158.8 510.218 158.66 511.244 158.38C512.318 158.1 513.251 157.68 514.044 157.12C514.884 156.56 515.538 155.86 516.004 155.02C516.518 154.133 516.774 153.083 516.774 151.87V126.88H522.374V163H516.774V157.12ZM534.3 163V126.88H539.9V133.53H540.25C540.903 131.803 542.07 130.263 543.75 128.91C545.43 127.557 547.74 126.88 550.68 126.88H552.85V132.48H549.56C546.526 132.48 544.146 133.063 542.42 134.23C540.74 135.35 539.9 136.773 539.9 138.5V163H534.3ZM587.396 163.84C584.036 163.84 581.212 163.21 578.926 161.95C576.686 160.643 574.749 158.917 573.116 156.77L577.106 153.55C578.506 155.323 580.069 156.7 581.796 157.68C583.522 158.613 585.529 159.08 587.816 159.08C590.196 159.08 592.039 158.567 593.346 157.54C594.699 156.513 595.376 155.067 595.376 153.2C595.376 151.8 594.909 150.61 593.976 149.63C593.089 148.603 591.456 147.903 589.076 147.53L586.206 147.11C584.526 146.877 582.986 146.527 581.586 146.06C580.186 145.547 578.949 144.893 577.876 144.1C576.849 143.26 576.032 142.233 575.426 141.02C574.866 139.807 574.586 138.36 574.586 136.68C574.586 134.907 574.912 133.367 575.566 132.06C576.219 130.707 577.106 129.587 578.226 128.7C579.392 127.813 580.769 127.16 582.356 126.74C583.942 126.273 585.646 126.04 587.466 126.04C590.406 126.04 592.856 126.553 594.816 127.58C596.822 128.607 598.572 130.03 600.066 131.85L596.356 135.21C595.562 134.09 594.396 133.087 592.856 132.2C591.316 131.267 589.379 130.8 587.046 130.8C584.712 130.8 582.939 131.313 581.726 132.34C580.559 133.32 579.976 134.673 579.976 136.4C579.976 138.173 580.559 139.457 581.726 140.25C582.939 141.043 584.666 141.627 586.906 142L589.706 142.42C593.719 143.027 596.566 144.193 598.246 145.92C599.926 147.6 600.766 149.817 600.766 152.57C600.766 156.07 599.576 158.823 597.196 160.83C594.816 162.837 591.549 163.84 587.396 163.84ZM618.159 163C616.199 163 614.705 162.463 613.679 161.39C612.699 160.27 612.209 158.823 612.209 157.05V131.78H606.259V126.88H609.619C610.832 126.88 611.649 126.647 612.069 126.18C612.535 125.667 612.769 124.803 612.769 123.59V116.87H617.809V126.88H625.719V131.78H617.809V158.1H625.159V163H618.159ZM656.98 157.12H656.7C656.326 157.96 655.86 158.8 655.3 159.64C654.786 160.433 654.133 161.157 653.34 161.81C652.546 162.417 651.59 162.907 650.47 163.28C649.35 163.653 648.043 163.84 646.55 163.84C642.816 163.84 639.853 162.65 637.66 160.27C635.466 157.843 634.37 154.437 634.37 150.05V126.88H639.97V149.07C639.97 155.557 642.723 158.8 648.23 158.8C649.35 158.8 650.423 158.66 651.45 158.38C652.523 158.1 653.456 157.68 654.25 157.12C655.09 156.56 655.743 155.86 656.21 155.02C656.723 154.133 656.98 153.083 656.98 151.87V126.88H662.58V163H656.98V157.12ZM697.605 157.12H697.325C695.131 161.6 691.608 163.84 686.755 163.84C684.515 163.84 682.485 163.397 680.665 162.51C678.845 161.623 677.281 160.363 675.975 158.73C674.715 157.097 673.735 155.113 673.035 152.78C672.381 150.447 672.055 147.833 672.055 144.94C672.055 142.047 672.381 139.433 673.035 137.1C673.735 134.767 674.715 132.783 675.975 131.15C677.281 129.517 678.845 128.257 680.665 127.37C682.485 126.483 684.515 126.04 686.755 126.04C689.275 126.04 691.421 126.6 693.195 127.72C695.015 128.793 696.391 130.473 697.325 132.76H697.605V111.2H703.205V163H697.605V157.12ZM688.295 158.8C689.555 158.8 690.745 158.637 691.865 158.31C693.031 157.983 694.035 157.517 694.875 156.91C695.715 156.257 696.368 155.487 696.835 154.6C697.348 153.667 697.605 152.617 697.605 151.45V138.01C697.605 137.03 697.348 136.12 696.835 135.28C696.368 134.393 695.715 133.647 694.875 133.04C694.035 132.433 693.031 131.967 691.865 131.64C690.745 131.267 689.555 131.08 688.295 131.08C685.121 131.08 682.625 132.083 680.805 134.09C678.985 136.05 678.075 138.64 678.075 141.86V148.02C678.075 151.24 678.985 153.853 680.805 155.86C682.625 157.82 685.121 158.8 688.295 158.8ZM717.91 118.41C716.697 118.41 715.81 118.13 715.25 117.57C714.737 116.963 714.48 116.193 714.48 115.26V114.35C714.48 113.417 714.737 112.67 715.25 112.11C715.81 111.503 716.697 111.2 717.91 111.2C719.123 111.2 719.987 111.503 720.5 112.11C721.06 112.67 721.34 113.417 721.34 114.35V115.26C721.34 116.193 721.06 116.963 720.5 117.57C719.987 118.13 719.123 118.41 717.91 118.41ZM715.11 126.88H720.71V163H715.11V126.88ZM746.26 163.84C743.833 163.84 741.617 163.397 739.61 162.51C737.603 161.623 735.877 160.363 734.43 158.73C733.03 157.05 731.933 155.067 731.14 152.78C730.347 150.447 729.95 147.833 729.95 144.94C729.95 142.093 730.347 139.503 731.14 137.17C731.933 134.837 733.03 132.853 734.43 131.22C735.877 129.54 737.603 128.257 739.61 127.37C741.617 126.483 743.833 126.04 746.26 126.04C748.687 126.04 750.88 126.483 752.84 127.37C754.847 128.257 756.573 129.54 758.02 131.22C759.467 132.853 760.587 134.837 761.38 137.17C762.173 139.503 762.57 142.093 762.57 144.94C762.57 147.833 762.173 150.447 761.38 152.78C760.587 155.067 759.467 157.05 758.02 158.73C756.573 160.363 754.847 161.623 752.84 162.51C750.88 163.397 748.687 163.84 746.26 163.84ZM746.26 158.87C749.293 158.87 751.767 157.937 753.68 156.07C755.593 154.203 756.55 151.357 756.55 147.53V142.35C756.55 138.523 755.593 135.677 753.68 133.81C751.767 131.943 749.293 131.01 746.26 131.01C743.227 131.01 740.753 131.943 738.84 133.81C736.927 135.677 735.97 138.523 735.97 142.35V147.53C735.97 151.357 736.927 154.203 738.84 156.07C740.753 157.937 743.227 158.87 746.26 158.87ZM770.413 130.8V111.2H775.453V130.8H770.413ZM798.216 163.84C794.856 163.84 792.033 163.21 789.746 161.95C787.506 160.643 785.569 158.917 783.936 156.77L787.926 153.55C789.326 155.323 790.889 156.7 792.616 157.68C794.343 158.613 796.349 159.08 798.636 159.08C801.016 159.08 802.859 158.567 804.166 157.54C805.519 156.513 806.196 155.067 806.196 153.2C806.196 151.8 805.729 150.61 804.796 149.63C803.909 148.603 802.276 147.903 799.896 147.53L797.026 147.11C795.346 146.877 793.806 146.527 792.406 146.06C791.006 145.547 789.769 144.893 788.696 144.1C787.669 143.26 786.853 142.233 786.246 141.02C785.686 139.807 785.406 138.36 785.406 136.68C785.406 134.907 785.733 133.367 786.386 132.06C787.039 130.707 787.926 129.587 789.046 128.7C790.213 127.813 791.589 127.16 793.176 126.74C794.763 126.273 796.466 126.04 798.286 126.04C801.226 126.04 803.676 126.553 805.636 127.58C807.643 128.607 809.393 130.03 810.886 131.85L807.176 135.21C806.383 134.09 805.216 133.087 803.676 132.2C802.136 131.267 800.199 130.8 797.866 130.8C795.533 130.8 793.759 131.313 792.546 132.34C791.379 133.32 790.796 134.673 790.796 136.4C790.796 138.173 791.379 139.457 792.546 140.25C793.759 141.043 795.486 141.627 797.726 142L800.526 142.42C804.539 143.027 807.386 144.193 809.066 145.92C810.746 147.6 811.586 149.817 811.586 152.57C811.586 156.07 810.396 158.823 808.016 160.83C805.636 162.837 802.369 163.84 798.216 163.84ZM851.6 163.84C849.127 163.84 846.887 163.397 844.88 162.51C842.92 161.623 841.217 160.363 839.77 158.73C838.37 157.05 837.274 155.067 836.48 152.78C835.734 150.447 835.36 147.833 835.36 144.94C835.36 142.093 835.734 139.503 836.48 137.17C837.274 134.837 838.37 132.853 839.77 131.22C841.217 129.54 842.92 128.257 844.88 127.37C846.887 126.483 849.127 126.04 851.6 126.04C854.027 126.04 856.197 126.483 858.11 127.37C860.024 128.257 861.657 129.493 863.01 131.08C864.364 132.62 865.39 134.463 866.09 136.61C866.837 138.757 867.21 141.113 867.21 143.68V146.34H841.24V148.02C841.24 149.56 841.474 151.007 841.94 152.36C842.454 153.667 843.154 154.81 844.04 155.79C844.974 156.77 846.094 157.54 847.4 158.1C848.754 158.66 850.27 158.94 851.95 158.94C854.237 158.94 856.22 158.403 857.9 157.33C859.627 156.257 860.957 154.717 861.89 152.71L865.88 155.58C864.714 158.053 862.894 160.06 860.42 161.6C857.947 163.093 855.007 163.84 851.6 163.84ZM851.6 130.73C850.06 130.73 848.66 131.01 847.4 131.57C846.14 132.083 845.044 132.83 844.11 133.81C843.224 134.79 842.524 135.957 842.01 137.31C841.497 138.617 841.24 140.063 841.24 141.65V142.14H861.19V141.37C861.19 138.15 860.304 135.583 858.53 133.67C856.804 131.71 854.494 130.73 851.6 130.73ZM871.138 163L884.508 144.8L871.698 126.88H878.278L887.448 140.32H887.658L897.178 126.88H903.408L890.668 144.38L903.688 163H897.108L887.728 148.86H887.518L877.368 163H871.138ZM911.096 126.88H916.696V132.76H916.976C917.91 130.473 919.263 128.793 921.036 127.72C922.856 126.6 925.026 126.04 927.546 126.04C929.786 126.04 931.816 126.483 933.636 127.37C935.456 128.257 936.996 129.517 938.256 131.15C939.563 132.783 940.543 134.767 941.196 137.1C941.896 139.433 942.246 142.047 942.246 144.94C942.246 147.833 941.896 150.447 941.196 152.78C940.543 155.113 939.563 157.097 938.256 158.73C936.996 160.363 935.456 161.623 933.636 162.51C931.816 163.397 929.786 163.84 927.546 163.84C922.646 163.84 919.123 161.6 916.976 157.12H916.696V177H911.096V126.88ZM926.006 158.8C929.18 158.8 931.676 157.82 933.496 155.86C935.316 153.853 936.226 151.24 936.226 148.02V141.86C936.226 138.64 935.316 136.05 933.496 134.09C931.676 132.083 929.18 131.08 926.006 131.08C924.746 131.08 923.533 131.267 922.366 131.64C921.246 131.967 920.266 132.433 919.426 133.04C918.586 133.647 917.91 134.393 917.396 135.28C916.93 136.12 916.696 137.03 916.696 138.01V151.45C916.696 152.617 916.93 153.667 917.396 154.6C917.91 155.487 918.586 156.257 919.426 156.91C920.266 157.517 921.246 157.983 922.366 158.31C923.533 158.637 924.746 158.8 926.006 158.8ZM965.282 163.84C962.809 163.84 960.569 163.397 958.562 162.51C956.602 161.623 954.899 160.363 953.452 158.73C952.052 157.05 950.955 155.067 950.162 152.78C949.415 150.447 949.042 147.833 949.042 144.94C949.042 142.093 949.415 139.503 950.162 137.17C950.955 134.837 952.052 132.853 953.452 131.22C954.899 129.54 956.602 128.257 958.562 127.37C960.569 126.483 962.809 126.04 965.282 126.04C967.709 126.04 969.879 126.483 971.792 127.37C973.705 128.257 975.339 129.493 976.692 131.08C978.045 132.62 979.072 134.463 979.772 136.61C980.519 138.757 980.892 141.113 980.892 143.68V146.34H954.922V148.02C954.922 149.56 955.155 151.007 955.622 152.36C956.135 153.667 956.835 154.81 957.722 155.79C958.655 156.77 959.775 157.54 961.082 158.1C962.435 158.66 963.952 158.94 965.632 158.94C967.919 158.94 969.902 158.403 971.582 157.33C973.309 156.257 974.639 154.717 975.572 152.71L979.562 155.58C978.395 158.053 976.575 160.06 974.102 161.6C971.629 163.093 968.689 163.84 965.282 163.84ZM965.282 130.73C963.742 130.73 962.342 131.01 961.082 131.57C959.822 132.083 958.725 132.83 957.792 133.81C956.905 134.79 956.205 135.957 955.692 137.31C955.179 138.617 954.922 140.063 954.922 141.65V142.14H974.872V141.37C974.872 138.15 973.985 135.583 972.212 133.67C970.485 131.71 968.175 130.73 965.282 130.73ZM990.12 163V126.88H995.72V133.53H996.07C996.723 131.803 997.89 130.263 999.57 128.91C1001.25 127.557 1003.56 126.88 1006.5 126.88H1008.67V132.48H1005.38C1002.35 132.48 999.967 133.063 998.24 134.23C996.56 135.35 995.72 136.773 995.72 138.5V163H990.12ZM1024.08 163C1022.12 163 1020.62 162.463 1019.6 161.39C1018.62 160.27 1018.13 158.823 1018.13 157.05V131.78H1012.18V126.88H1015.54C1016.75 126.88 1017.57 126.647 1017.99 126.18C1018.45 125.667 1018.69 124.803 1018.69 123.59V116.87H1023.73V126.88H1031.64V131.78H1023.73V158.1H1031.08V163H1024.08ZM1043.44 118.41C1042.22 118.41 1041.34 118.13 1040.78 117.57C1040.26 116.963 1040.01 116.193 1040.01 115.26V114.35C1040.01 113.417 1040.26 112.67 1040.78 112.11C1041.34 111.503 1042.22 111.2 1043.44 111.2C1044.65 111.2 1045.51 111.503 1046.03 112.11C1046.59 112.67 1046.87 113.417 1046.87 114.35V115.26C1046.87 116.193 1046.59 116.963 1046.03 117.57C1045.51 118.13 1044.65 118.41 1043.44 118.41ZM1040.64 126.88H1046.24V163H1040.64V126.88ZM1068.99 163.84C1065.63 163.84 1062.8 163.21 1060.52 161.95C1058.28 160.643 1056.34 158.917 1054.71 156.77L1058.7 153.55C1060.1 155.323 1061.66 156.7 1063.39 157.68C1065.11 158.613 1067.12 159.08 1069.41 159.08C1071.79 159.08 1073.63 158.567 1074.94 157.54C1076.29 156.513 1076.97 155.067 1076.97 153.2C1076.97 151.8 1076.5 150.61 1075.57 149.63C1074.68 148.603 1073.05 147.903 1070.67 147.53L1067.8 147.11C1066.12 146.877 1064.58 146.527 1063.18 146.06C1061.78 145.547 1060.54 144.893 1059.47 144.1C1058.44 143.26 1057.62 142.233 1057.02 141.02C1056.46 139.807 1056.18 138.36 1056.18 136.68C1056.18 134.907 1056.5 133.367 1057.16 132.06C1057.81 130.707 1058.7 129.587 1059.82 128.7C1060.98 127.813 1062.36 127.16 1063.95 126.74C1065.53 126.273 1067.24 126.04 1069.06 126.04C1072 126.04 1074.45 126.553 1076.41 127.58C1078.41 128.607 1080.16 130.03 1081.66 131.85L1077.95 135.21C1077.15 134.09 1075.99 133.087 1074.45 132.2C1072.91 131.267 1070.97 130.8 1068.64 130.8C1066.3 130.8 1064.53 131.313 1063.32 132.34C1062.15 133.32 1061.57 134.673 1061.57 136.4C1061.57 138.173 1062.15 139.457 1063.32 140.25C1064.53 141.043 1066.26 141.627 1068.5 142L1071.3 142.42C1075.31 143.027 1078.16 144.193 1079.84 145.92C1081.52 147.6 1082.36 149.817 1082.36 152.57C1082.36 156.07 1081.17 158.823 1078.79 160.83C1076.41 162.837 1073.14 163.84 1068.99 163.84ZM1105.83 163.84C1103.36 163.84 1101.12 163.397 1099.11 162.51C1097.15 161.623 1095.45 160.363 1094 158.73C1092.6 157.05 1091.5 155.067 1090.71 152.78C1089.96 150.447 1089.59 147.833 1089.59 144.94C1089.59 142.093 1089.96 139.503 1090.71 137.17C1091.5 134.837 1092.6 132.853 1094 131.22C1095.45 129.54 1097.15 128.257 1099.11 127.37C1101.12 126.483 1103.36 126.04 1105.83 126.04C1108.26 126.04 1110.43 126.483 1112.34 127.37C1114.25 128.257 1115.89 129.493 1117.24 131.08C1118.59 132.62 1119.62 134.463 1120.32 136.61C1121.07 138.757 1121.44 141.113 1121.44 143.68V146.34H1095.47V148.02C1095.47 149.56 1095.7 151.007 1096.17 152.36C1096.68 153.667 1097.38 154.81 1098.27 155.79C1099.2 156.77 1100.32 157.54 1101.63 158.1C1102.98 158.66 1104.5 158.94 1106.18 158.94C1108.47 158.94 1110.45 158.403 1112.13 157.33C1113.86 156.257 1115.19 154.717 1116.12 152.71L1120.11 155.58C1118.94 158.053 1117.12 160.06 1114.65 161.6C1112.18 163.093 1109.24 163.84 1105.83 163.84ZM1105.83 130.73C1104.29 130.73 1102.89 131.01 1101.63 131.57C1100.37 132.083 1099.27 132.83 1098.34 133.81C1097.45 134.79 1096.75 135.957 1096.24 137.31C1095.73 138.617 1095.47 140.063 1095.47 141.65V142.14H1115.42V141.37C1115.42 138.15 1114.53 135.583 1112.76 133.67C1111.03 131.71 1108.72 130.73 1105.83 130.73Z" fill="#1B1C1E"/>
<path d="M125.634 53.9695V49.0061C125.634 45.7825 123.011 43.16 119.787 43.16C116.564 43.16 113.941 45.7825 113.941 49.0061V53.9695C111.228 55.8357 109.444 58.9617 109.444 62.497C109.444 68.2002 114.084 72.84 119.787 72.84C125.491 72.84 130.13 68.2002 130.13 62.497C130.13 58.9617 128.347 55.8357 125.634 53.9695ZM121.137 62.3338V64.2958C121.137 65.0409 120.533 65.6449 119.787 65.6449C119.043 65.6449 118.438 65.0409 118.438 64.2958V62.3338C118.159 62.0168 117.989 61.6024 117.989 61.1479C117.989 60.1561 118.796 59.3491 119.787 59.3491C120.779 59.3491 121.586 60.1562 121.586 61.1479C121.586 61.6024 121.416 62.0167 121.137 62.3338ZM122.935 52.6443C121.942 52.3263 120.885 52.1539 119.787 52.1539C118.69 52.1539 117.633 52.3263 116.64 52.6443V49.0061C116.64 47.2703 118.052 45.8582 119.787 45.8582C121.523 45.8582 122.935 47.2703 122.935 49.0061V52.6443Z" fill="#1B1C1E"/>
</svg>
